<svg xmlns="http://www.w3.org/2000/svg" width="133.449" height="90" viewBox="0 0 133.449 90"><defs><style>.a{fill:#f37e21;opacity:0.7;}</style></defs><path class="a" d="M89.744,76.494a.536.536,0,0,1-.413-.178c-.067-.1.055-.146.276-.106.275.049.394-.034.394-.276a.571.571,0,0,0-.183-.457c-.2-.119-.158-1.225.058-1.564a.216.216,0,0,0-.049-.3,1.169,1.169,0,0,1-.174-.748,2.4,2.4,0,0,0-.1-.809,1.108,1.108,0,0,1,.183-.712c.159-.3.216-.566.129-.6s-.123-.392-.082-.8q.073-.748-.165-.747c-.127,0-.187-.125-.129-.267a1.527,1.527,0,0,0-.054-.81,1.246,1.246,0,0,1-.012-.81c.223-.384-.025-.69-.649-.8-.752-.131-1.142-.467-.888-.767.156-.186.108-.3-.185-.454a.794.794,0,0,1-.394-.756c0-.57-.452-.962-.917-.8-.129.045-.239,0-.239-.1a.3.3,0,0,1,.221-.258c.156-.05.137-.151-.065-.346a3.616,3.616,0,0,1-.5-.65c-.216-.366-.22-.365-.22.044,0,.374-.055.4-.514.231a.936.936,0,0,0-.954.092c-.459.29-.816.114-.565-.279.068-.106.05-.183-.04-.167-.441.076-.837-.037-.724-.206.071-.106.045-.178-.066-.178s-.24-.142-.31-.32a.4.4,0,0,1,.549-.494c.116.045.225-.075.229-.253a2.188,2.188,0,0,1,.164-.676c.136-.3.065-.331-.578-.276-.459.039-.765-.028-.816-.178s.091-.24.348-.24c.422,0,.424-.008.092-.356-.187-.2-.294-.429-.239-.517s-.11-.256-.348-.365c-.385-.175-.463-.155-.541.143-.052.2-.2.346-.331.346-.217,0-.193-.214.114-1.014.125-.327.1-.32-.187.053-.372.481-.738.561-.569.125.067-.173-.01-.285-.193-.285s-.259.111-.193.285.014.284-.11.284c-.257,0-.261-.106-.03-.872.156-.516.133-.58-.19-.525-.239.041-.367-.034-.367-.213,0-.161-.085-.226-.2-.158-.283.166-.228-.154.105-.616s.133-.686-.4-.487c-.276.1-.322.063-.223-.19.224-.57-.039-.867-.585-.665-.386.143-.563.121-.8-.1-.271-.256-.248-.284.229-.284.293,0,.532-.092.532-.205,0-.131-.229-.165-.633-.1-.344.058-1.2.163-1.88.231-1.138.114-1.225.1-.991-.178a.505.505,0,0,0,.129-.5c-.073-.109-.028-.172.1-.142a.306.306,0,0,0,.321-.187q.091-.24-.211-.125a.312.312,0,0,1-.432-.2.312.312,0,0,0-.431-.2c-.166.063-.245.059-.174-.009s.04-.286-.058-.464c-.2-.355.2-.855.48-.608.092.081.108.047.036-.077a.233.233,0,0,1,.065-.329.3.3,0,0,0,.082-.382c-.064-.161-.179-.235-.275-.178s-.262-.053-.376-.231c-.193-.3-.2-.294-.122.08.118.552-.376.958-.52.427-.058-.214-.2-.374-.321-.374s-.17.077-.1.187-.01.187-.174.187a.331.331,0,0,1-.294-.356.514.514,0,0,0-.3-.463c-.164-.058-.248-.2-.183-.3s-.027-.2-.193-.2-.391-.2-.486-.454c-.131-.338-.28-.434-.587-.374s-.442-.031-.514-.3a.346.346,0,0,0-.477-.293c-.256.061-.344.01-.275-.161.056-.138-.193-.466-.559-.738s-.665-.422-.67-.338-.229.164-.487.178c-.293.016-.476-.08-.476-.25s.084-.225.2-.154c.364.221.537-.086.31-.549a1.726,1.726,0,0,0-.842-.685c-.348-.135-.623-.3-.623-.383s-.137-.094-.3-.036c-.256.091-.265.15-.055.392s.2.3.01.365a.2.2,0,0,0-.11.3c.072.124.06.16-.028.079s-.284-.038-.431.08c-.221.178-.345.134-.621-.223-.346-.445-.348-.86,0-.651.244.147.227.029-.075-.541-.17-.32-.316-.421-.437-.3-.208.205-1.8-1.085-1.8-1.459,0-.249-1.063-1-1.211-.853-.062.06-.166-.142-.238-.463-.111-.5-.863-1.243-.863-.855,0,.077-.245-.116-.532-.418a6.66,6.66,0,0,0-1.064-.89,1.02,1.02,0,0,1-.532-.73c0-.3-.043-.335-.175-.133-.215.328-.6.089-.6-.374,0-.214-.082-.374-.193-.374s-.18.142-.166.32c.057.658-.036,1.174-.211,1.174-.105,0-.133-.249-.064-.587.083-.409.055-.548-.092-.454s-.177-.01-.11-.294c.055-.23.135-.685.175-.987.055-.428.029-.487-.11-.25s-.385.291-.991.231a2.561,2.561,0,0,1-.917-.2c-.061-.071.092-.075.349-.01.348.088.406.065.238-.1a.913.913,0,0,1-.221-.552c0-.178-.086-.338-.183-.338s-.142.106-.087.249c.124.32-.394.771-.683.6-.154-.093-.115-.249.129-.516.348-.382.348-.382-.184-.053-.293.182-.54.425-.551.543s-.085-.089-.164-.445a6.879,6.879,0,0,0-.294-.988c-.105-.236-.045-.332.211-.338.2,0,.254-.052.119-.106a.2.2,0,0,1-.124-.277c.115-.177-.114-.227-.793-.176-.367.028-1.156-.581-1.156-.891,0-.075-.055-.107-.138-.08s-.087-.08-.03-.223c.108-.267-.355-.293-.621-.035-.072.069-.24-.018-.378-.2-.348-.445-.33-.623.048-.477.2.078.263.043.174-.1s-.037-.184.166-.107c.165.063.3.018.3-.1a.2.2,0,0,0-.2-.214c-.108,0-.135-.106-.055-.231.095-.15.027-.14-.193.027-.183.139-.394.205-.459.142s-.018-.116.11-.116a.258.258,0,0,0,.229-.284c0-.272-.313-.359-1.028-.284-.183.019-.33-.056-.33-.17a.212.212,0,0,1,.2-.2c.109,0,.147-.089.082-.2-.079-.131-.2-.128-.367.009-.186.153-.308.134-.487-.08-.133-.161-.311-.242-.4-.187a.219.219,0,0,1-.284-.1.218.218,0,0,0-.293-.089c-.095.058-.174-.027-.174-.187s-.087-.294-.193-.294-.193-.115-.193-.276a.282.282,0,0,0-.293-.276c-.166,0-.294.081-.294.187a.169.169,0,0,1-.156.187c-.084,0-.118-.3-.074-.658.07-.552.032-.64-.229-.543-.165.061-.312.019-.312-.089a.213.213,0,0,0-.2-.205c-.11,0-.157.077-.1.169s-.079.374-.285.6c-.235.267-.363.329-.33.161a.723.723,0,0,1,.239-.409c.1-.075-.046-.216-.34-.32s-.523-.265-.523-.365c0-.284.453-.494.538-.25.093.267.434.282.434.018,0-.3-.573-.766-.79-.64-.173.1-.272-.143-.207-.518.013-.081-.059-.142-.168-.142a.2.2,0,0,1-.193-.2c0-.214-.467-.73-.661-.73-.062,0-.11.125-.11.284,0,.44-.347.32-.415-.142q-.061-.427-.392-.374c-.385.062-.479-.434-.109-.582.141-.056.064-.145-.193-.22-.239-.069-.391-.192-.34-.276a1.076,1.076,0,0,0-.184-.667l-.275-.517-.129.507-.128.508-.266-.5c-.143-.267-.215-.573-.156-.659s-.184-.111-.532-.053c-.5.082-.575.06-.348-.1.165-.115.225-.205.137-.205s-.065-.16.037-.338c.144-.254.094-.5-.2-.979-.515-.836-.5-.824-.834-.553-.461.369-.6.055-.186-.407.208-.231.273-.355.149-.285a.394.394,0,0,1-.459-.151.929.929,0,0,0-.587-.276c-.4,0-.492-.36-.164-.677.144-.14.054-.29-.313-.525-.385-.247-.55-.271-.66-.1-.085.134-.179-.089-.224-.534-.071-.711.021-.873.462-.805.083.013.147-.1.147-.262,0-.359.195-.338.5.053.139.178.256.218.261.089.014-.284.54-.1,1.054.362a1.311,1.311,0,0,0,.725.332.5.5,0,0,1,.458.258c.057.144.524.314,1.055.382s.954.2.954.3.129.178.293.178.294-.086.294-.2.087-.143.193-.08a.606.606,0,0,1,.193.471c0,.214.1.319.256.263a3.356,3.356,0,0,1,2.162,1c.282.32.435.389.5.223.07-.182.321-.133,1.036.2a4.487,4.487,0,0,0,1.083.409c.078-.02.227.125.348.339s.289.326.394.262c.348-.211,2.613.681,2.993,1.18.123.16.3.236.4.174a4.912,4.912,0,0,1,2.5.733c.117.143.3.243.394.214a3.57,3.57,0,0,1,1.128.4c.532.253,1.092.517,1.266.6a.486.486,0,0,0,.532-.072c.205-.2.3-.053.262.428,0,.048.306.113.673.142a1.007,1.007,0,0,0,.936-.276c.229-.294.246-.284.147.089-.079.3-.012.447.248.524a7.443,7.443,0,0,1,.908.377c.735.36.9.341.9-.11,0-.214.082-.374.193-.374s.193.178.193.392a.974.974,0,0,0,.239.617,6.52,6.52,0,0,0,2.458.74.958.958,0,0,1,.633.261,1.407,1.407,0,0,0,.917.231c.587,0,.764.075.77.329.009.3.03.3.275-.017s.27-.32.33.072c.051.332.2.431.735.48.367.034.757.075.862.089a1.41,1.41,0,0,0,.531-.106c.26-.1.34-.036.34.284,0,.392.022.4.348.111.459-.4.6-.4.491.022-.075.3.015.329.711.267a1.717,1.717,0,0,1,1.018.142c.372.36.452.214.361-.659-.058-.569-.013-.836.143-.836s.2.24.147.721a1.407,1.407,0,0,0,.229,1.094c.357.427,1.158.8.84.392a1.7,1.7,0,0,1-.207-.757c-.023-.445.031-.507.358-.409.275.082.385.034.385-.169,0-.391.314-.54.7-.33.221.12.248.207.092.294-.129.074-.221.044-.221-.071a.184.184,0,0,0-.165-.2c-.421,0-.092.532.385.623.422.081.521.181.422.427-.118.3-.138.293-.256-.027-.093-.249-.17-.282-.276-.116s-.211.178-.412.01c-.184-.154-.266-.157-.266-.01,0,.119-.147.214-.33.214-.313,0-.313.018,0,.32a2.14,2.14,0,0,0,2.183.053c.208-.249.239-.231.247.143.006.231.076.406.157.382a1.189,1.189,0,0,1,.559.178c.348.188.431.178.527-.063.158-.391.147-.491-.042-.375-.078.048-.133-.141-.119-.408.043-.783.059-.828.248-.715.522.314.907-.388.532-.976-.079-.124-.049-.231.064-.231s.211-.169.211-.382.085-.332.193-.267a.208.208,0,0,1,.082.293c-.06.1.221.17.624.161.6-.015.653-.04.275-.142-.569-.154-.762-.578-.275-.6.255-.014.22-.058-.129-.166-.734-.227-.907-.214-.94.076-.018.161-.045.406-.06.561s-.1.237-.193.183c-.152-.085-.25.182-.191.52.015.081-.057.154-.167.169s-.293.04-.4.053a.914.914,0,0,0-.452.347c-.267.355-.589.448-.372.106.074-.117-.029-.338-.231-.49-.359-.27-.357-.273.065-.168.238.059.48.027.541-.072s-.055-.178-.276-.178q-.385,0-.354-.374a.469.469,0,0,1,.815-.32c.29.359,1.062.178,1.062-.25,0-.2-.087-.355-.193-.355a.185.185,0,0,0-.193.187.209.209,0,0,1-.229.187c-.129,0-.173-.055-.1-.125.19-.184-.256-.607-.531-.505a.322.322,0,0,1-.385-.108.536.536,0,0,0-.422-.205c-.166,0-.242.082-.174.187s-.01.139-.193.072c-.257-.1-.267-.144-.055-.276.146-.092.178-.162.073-.164-.359-.006.735-.925,1.12-.941.273-.011.2-.074-.221-.195-.348-.1-.623-.276-.623-.4s-.129-.045-.3.187c-.386.534-.767.562-.478.036.187-.34.15-.374-.4-.374-.459,0-.577.072-.487.294.078.192-.045.364-.357.5-.257.11-.482.3-.487.409s-.083.089-.174-.053a.415.415,0,0,0-.486-.142c-.257.093-.282.187-.125.471.275.5-.2.92-.558.5-.152-.178-.167-.285-.042-.285.33,0,.184-.765-.184-.957a.7.7,0,0,1-.348-.52c0-.426-1.082-1.321-1.633-1.349a4.667,4.667,0,0,1-.6-.066,4.6,4.6,0,0,0-.523-.073c-.349-.03-.471-.6-.129-.6a.7.7,0,0,0,.608-.783c-.049-.178.01-.339.126-.339a.219.219,0,0,0,.221-.223c0-.17-.055-.168-.239.01-.293.285-.793.285-.613,0,.095-.15.026-.174-.231-.08-.2.074-.309.077-.238.01.251-.243-.239-.68-.514-.46-.171.138-.363.068-.684-.253-.446-.445-1.094-.488-.824-.054.075.122,0,.1-.188-.045s-.321-.17-.321-.053-.174.255-.395.32-.349.183-.293.267-.037.2-.2.267-.269.051-.229-.027.192-.427.331-.765c.191-.464.351-.6.623-.529.4.1.5-.342.11-.5-.342-.135.22-.5.569-.37.158.059.256-.038.256-.252,0-.249-.137-.342-.486-.329a1.242,1.242,0,0,0-.615.142.976.976,0,0,1-.532.125c-.33,0-.352.033-.119.178a.438.438,0,0,0,.541-.03c.3-.241.3-.112.018.493-.233.5-.866.682-.675.2a.318.318,0,0,0-.077-.374c-.1-.06-.184.018-.184.178s-.084.285-.193.285-.193-.124-.193-.285a1.022,1.022,0,0,0-.293-.579c-.161-.16-.263-.382-.226-.489.1-.285.721-.315.721-.036,0,.148.174.2.487.134.275-.055.45-.187.4-.3a.284.284,0,0,0-.312-.16c-.153.029-.2-.142-.138-.517.05-.3.012-.56-.082-.56a.2.2,0,0,0-.174.223c0,.16-.062.163-.22.009s-.161-.284.036-.516c.234-.276.193-.291-.467-.169-.643.118-.736.088-.825-.267-.054-.213-.226-.4-.367-.4s-.266-.083-.266-.187a.185.185,0,0,0-.193-.187c-.112,0-.193.116-.193.276s-.081.276-.193.276-.146.125-.092.267c.062.165-.138.383-.523.57-.679.329-.892.284-.505-.107a3.879,3.879,0,0,0,1.11-1.637c0-.2-.348-.472-.935-.728-1.1-.479-1.213-.493-1.063-.126.133.327,0,.348-.516.077-.22-.115-.342-.271-.284-.363.17-.267-.652-.609-1.165-.485-.349.085-.433.047-.349-.156s0-.24-.293-.168c-.275.067-.4.007-.4-.187,0-.356-.559-.562-.862-.317-.17.138-.27.085-.348-.181-.073-.25-.275-.375-.606-.375-.275,0-.5-.063-.5-.142,0-.24,1.138-.254,1.6-.019.385.2.4.189.156-.1-.152-.178-.207-.369-.129-.445s.246.009.379.187c.269.356,1,.473.782.125-.068-.107-.17-.152-.225-.1s-.229-.027-.376-.169c-.293-.285-1.6-.386-1.6-.125,0,.09-.129.161-.293.161-.2,0-.257-.134-.174-.436.1-.38.055-.435-.385-.435-.276,0-.484-.1-.459-.214a.292.292,0,0,0-.221-.3c-.164-.055-.214-.012-.129.116s-.009.2-.265.2c-.341,0-.383-.079-.276-.507l.129-.507-.449.374c-.368.306-.428.316-.331.063.09-.234.028-.287-.248-.214-.256.069-.37-.007-.375-.25-.008-.284-.043-.3-.194-.062-.208.321-.5.089-.609-.481a.587.587,0,0,0-.528-.436c-.367-.05-.433,0-.33.258.111.277.082.286-.211.062a3.49,3.49,0,0,1-.459-.409.368.368,0,0,0-.293-.142c-.1,0-.174-.045-.174-.125a2.1,2.1,0,0,0-.33-.6c-.3-.427-.349-.438-.579-.151a1,1,0,0,1-.541.356,1.476,1.476,0,0,1-1.384-.846c-.036-.214-.178-.368-.313-.338-.165.035-.211-.089-.137-.374.083-.324.049-.3-.141.089-.264.542-.52.5-.52-.089,0-.308-.22-.425-.66-.348-.093.015-.116-.1-.052-.256.141-.356-.35-.406-.518-.053-.06.128-.064.045-.009-.187.1-.395.055-.414-.7-.339S42.2,4.319,42.3,3.9c.093-.374.05-.429-.266-.346-.2.052-.376,0-.376-.107s-.129-.2-.294-.2-.293-.078-.293-.178c0-.248-.628,0-.9.356-.179.233-.2.187-.107-.258s.051-.522-.211-.427c-.184.066-.321.054-.321-.027,0-.138-.825-.591-1.247-.685-.117-.025-.321-.075-.487-.115a.873.873,0,0,1-.431-.258c-.094-.119-.2-.116-.3.009-.178.231-.677.357-.566.142.041-.076-.128-.326-.366-.543C35.773.922,35.682.9,35.6,1.123a.223.223,0,0,1-.3.152.2.2,0,0,1-.1-.267c.055-.081-.119-.151-.375-.151s-.431.077-.376.168-.211-.037-.578-.281a2.366,2.366,0,0,0-2.22-.217c-.118.072-.394-.019-.6-.2-.367-.321-.383-.32-.66.027-.157.2-.287.259-.29.142C30.089.215,28.987-.16,28.84.073a.108.108,0,0,0,.1.178c.11,0,.15.094.083.2a.348.348,0,0,1-.395.1c-.147-.054-.266-.011-.266.1s-.092.139-.2.071-.423.089-.679.339c-.586.569-1.471,2.159-1.325,2.384a.107.107,0,0,1-.1.178c-.113,0-.313.214-.432.463a1.173,1.173,0,0,1-.541.561,1.822,1.822,0,0,0-.688.747,2.1,2.1,0,0,1-.467.649c-.054,0-.1.169-.1.365,0,.3.046.327.275.142s.255-.168.153.1c-.118.308.324.639.728.546.11-.026.135.013.055.086s-.043.258.092.419S25,7.75,24.564,7.48c-.9-.551-1.14-.608-1.15-.27a3.153,3.153,0,0,1-.143.658c-.123.38-.083.415.357.312.312-.073.5-.036.5.1s-.076.168-.184.1c-.22-.132-1.078.237-.916.394.062.06-.014.231-.174.392a.619.619,0,0,0-.174.579.361.361,0,0,1-.12.427c-.181.105-.171.205.046.471.144.178.179.283.074.221-.474-.278-.9.634-.623,1.346a8.082,8.082,0,0,1,.219,1.281,3.4,3.4,0,0,0,.313,1.237c.149.178.137.263-.046.329s-.178.231.083.765a1.705,1.705,0,0,1,.22.97c-.072.192.018.328.257.392a.585.585,0,0,1,.4.507c.067.855.258,1.245.611,1.245a.568.568,0,0,1,.367.89c-.224.217.239,1.156.569,1.156.166,0,.218.125.147.356s-.008.394.183.463a.534.534,0,0,1,.293.49.344.344,0,0,0,.294.382c.167,0,.293.161.293.374,0,.273.129.374.477.374.256,0,.477.086.477.187s-.092.167-.221.139c-.389-.085-.375.4.024.8.217.213.356.46.306.543s.2.432.569.783a2.485,2.485,0,0,1,.67.863c0,.122.221.231.459.231.374,0,.434.079.358.471-.052.267,0,.471.109.471s.3.3.422.659a1.689,1.689,0,0,0,.587.845c.239.122.322.3.239.508-.107.266-.077.28.183.079s.3-.187.221.1a1.007,1.007,0,0,0,.32.765c.327.339.47.381.688.205.147-.119.282-.19.289-.152.137.695.12.755-.179.65-.236-.083-.221-.037.055.16.22.158.487.36.623.472a.874.874,0,0,0,.385.2c.274,0,.636.712.517,1.014-.073.185,0,.285.2.285a2.665,2.665,0,0,1,1.513,1.442c.05.32.725,1.181.725.925,0-.047.221.108.477.339a1.462,1.462,0,0,1,.477.658c0,.262.716.944.991.944.087,0,.166.142.166.3a3.013,3.013,0,0,0,1.375,1.37c.093,0,.165.124.165.285,0,.374.774,1.243.991,1.114.087-.052.165.043.165.2s.091.248.193.187.193.045.193.258c0,.323.5.633,1.064.666.1.006.212.2.248.429s.146.369.248.309c.256-.154.974.279.831.5-.183.285.343,1.127.636,1.02a.181.181,0,0,1,.257.191c0,.161.084.234.193.169s.193-.018.193.089a3.1,3.1,0,0,0,.77.925,2.962,2.962,0,0,1,.77.944c0,.132.137.179.34.115.239-.075.446.072.7.5.6,1,3.188,3.417,3.653,3.417.275,0,.424.142.467.445a1.759,1.759,0,0,0,.579.863c.278.226.761.643,1.055.908a2.26,2.26,0,0,0,.705.49c.095,0,.217.16.285.374a.49.49,0,0,0,.395.374c.153,0,.418.214.6.481s.439.436.587.382.266-.015.266.089a2.465,2.465,0,0,0,.569.783,2.783,2.783,0,0,1,.578.765c.006.095.137.06.3-.08s.269-.171.239-.071a11.781,11.781,0,0,0,2.127,2.4c.3.245,1.23,1.015,1.706,1.417a.791.791,0,0,0,.487.232c.089-.025.156.036.156.143a2.589,2.589,0,0,0,.7.809c.634.566.686.685.569,1.308-.074.392-.243.685-.395.685s-.23-.134-.174-.346c.069-.259-.064-.4-.523-.561a1.443,1.443,0,0,0-.78-.106c-.09.058-.164.017-.164-.089s-.138-.142-.321-.072c-.221.086-.278.052-.184-.106.121-.2-.211-.307-.779-.24-.123.015-.278-.116-.348-.294-.107-.267-.158-.276-.3-.053s-.229.221-.524-.025A14.548,14.548,0,0,0,56.943,60.6c-.04,0-.074.134-.074.294s-.087.241-.193.178a.608.608,0,0,1-.193-.472c0-.231-.1-.318-.284-.249s-.285-.018-.285-.284c0-.4-.128-.456-.972-.4-.368.022-.414-.014-.2-.158s.147-.217-.293-.318c-.807-.187-1.669-.806-1.551-1.114.069-.182-.045-.267-.357-.267A.8.8,0,0,1,51.9,57.5a.4.4,0,0,0-.477-.2.3.3,0,0,1-.4-.152c-.141-.359-1.2-.8-2.133-.888a1.009,1.009,0,0,1-.643-.552c-.266-.534-.62-.693-.634-.286,0,.138-.111.1-.264-.1a.832.832,0,0,0-.467-.329,1.129,1.129,0,0,1-.566-.374,2.281,2.281,0,0,0-1.516-.594c-.312-.019-.322-.183-.03-.474.174-.173.159-.231-.061-.231a1.214,1.214,0,0,1-.661-.391.94.94,0,0,0-.9-.312c-.33.049-.531,0-.531-.134,0-.478-1.212-1.406-1.835-1.406a2.193,2.193,0,0,1-.926-.56,3.5,3.5,0,0,0-1.046-.676c-.238-.064-.431-.231-.431-.374a.263.263,0,0,0-.285-.258.281.281,0,0,1-.284-.285c0-.163-.166-.284-.385-.284s-.385-.08-.385-.187-.229-.188-.524-.188-.466-.053-.394-.123c.2-.195-.44-.786-.734-.675q-.276.1-.276-.3c0-.213-.128-.4-.275-.4a.45.45,0,0,1-.376-.258,1.037,1.037,0,0,0-.688-.382c-.33-.071-.586-.242-.586-.392s-.239-.367-.532-.49a3.3,3.3,0,0,1-.889-.579.838.838,0,0,0-.872-.24c-.33.074-.419.055-.248-.053.213-.135.223-.249.046-.569-.118-.214-.336-.4-.468-.4a1.525,1.525,0,0,1-.7-.454c-.247-.25-.524-.41-.615-.356s-.165-.08-.165-.294-.129-.391-.284-.391-.284-.06-.284-.142-.285-.243-.634-.365a5.863,5.863,0,0,1-1.494-.988c-.679-.6-.977-.75-1.4-.694-.385.05-.513,0-.442-.178.131-.328-.41-.809-.759-.675-.165.064-.28.006-.286-.143-.014-.339-1.149-1.211-1.157-.89,0,.135-.224.01-.483-.276-.323-.355-.477-.433-.477-.24s-.106.245-.284.178a.52.52,0,0,1-.285-.445c0-.463-.446-.8-.716-.543-.216.206-1.95-.827-2.612-1.557a1.321,1.321,0,0,0-.809-.382c-.275-.015-.486-.132-.486-.267a.266.266,0,0,0-.276-.24.411.411,0,0,1-.339-.142,6.964,6.964,0,0,0-1.22-.819c-.807-.473-1.2-.613-1.3-.464s-.147.161-.147,0c0-.117-.238-.269-.532-.338a2.358,2.358,0,0,1-.825-.374c-.422-.357-2.505-.47-2.635-.142a.339.339,0,0,1-.409.151,7.813,7.813,0,0,0-.872-.187,2.055,2.055,0,0,1-.651-.178c-.051-.049-.266.068-.486.267a1.344,1.344,0,0,1-.615.356c-.233,0-.558.533-.769,1.263a4.489,4.489,0,0,1-1.34,1.92c-.613.013-1.1.7-1.211,1.694a3.323,3.323,0,0,1-.539,1.566,2.977,2.977,0,0,0-.715,1.975c-.007.3-.086.552-.177.552s-.166.116-.166.277a.614.614,0,0,1-.312.444A.921.921,0,0,0,0,42.7c0,1.424.06,1.868.238,1.76.114-.07.2,0,.2.162S.36,44.9.256,44.9c-.164,0-.1.534.127,1.122.063.161.122.324.135.374a18.508,18.508,0,0,0,1.646,3.936,3.343,3.343,0,0,1,.32.461c.132.214.324.352.45.324.33-.075.484.525.183.714-.183.114-.211.219-.082.314a2.566,2.566,0,0,1,.468.658c.151.284.345.516.431.516s.156.143.156.3c0,.2.1.265.285.2.165-.062.276-.046.263.036a1.219,1.219,0,0,0,.412,1.1,1.334,1.334,0,0,1,.4.668c0,.142.193.349.431.462s.325.209.193.215c-.328.015-.313.292.036.631a5.157,5.157,0,0,1,1.064,1.886.851.851,0,0,0,.376.526A6.236,6.236,0,0,1,8.613,60.9a11.723,11.723,0,0,0,1.358,2.02,2.8,2.8,0,0,1,.67.979.285.285,0,0,0,.3.257c.164,0,.25.081.187.178-.116.179.776,1.52,1.106,1.663a.3.3,0,0,1,.147.258,1.072,1.072,0,0,0,.394.526c.221.184.391.376.385.436a1.372,1.372,0,0,0,.11.4.456.456,0,0,1-.045.454c-.212.206-1.046.036-1.046-.213,0-.089-.238-.1-.532-.036a8.9,8.9,0,0,0-2.522,1.228.415.415,0,0,1-.358.142c-.406,0-2.2,1.8-2.7,2.7a15.8,15.8,0,0,0-1.895,5.66,2.454,2.454,0,0,0,.112,1.272.55.55,0,0,1,.193.419,11.234,11.234,0,0,0,2.028,3.6,17.955,17.955,0,0,1,1.32,1.966,4.2,4.2,0,0,0,.678.97,1.384,1.384,0,0,1,.413.6c0,.112.164.3.385.428s.385.3.385.391a2,2,0,0,0,.432.668c.233.276.648.792.908,1.13s.569.716.678.827.615.73,1.12,1.37A4.163,4.163,0,0,0,14,92.369a.277.277,0,0,1,.229.329c-.017.2.119.35.358.385.362.052.716.478,1.476,1.777.469.8,1.145,1.452,1.367,1.316.11-.068.147-.035.082.073s0,.3.147.418c.21.175.311.151.477-.116s.191-.222.11.258c-.079.463-.04.574.174.494.293-.109,1.511,1.2,1.35,1.455-.055.085.108.239.346.329a6.419,6.419,0,0,1,1.366,1c.514.464.958.789,1.009.738s.092.018.092.142a20.723,20.723,0,0,0,3.283,3.2,3.172,3.172,0,0,1,.761.807c.015.285,1.009,1.429,1.22,1.406.551-.06,1.043.243.954.587-.064.249.016.359.266.365a6.066,6.066,0,0,1,1.7,1.218c1.78,1.608,2.721,2.345,2.844,2.226.061-.06.166.062.238.276s.186.382.257.382a2.115,2.115,0,0,1,.6.42c1.394,1.228,2.2,1.808,2.367,1.709.109-.065.151-.037.091.06s.055.316.276.5a.673.673,0,0,1,.275.738c-.061.231-.06.315,0,.187.181-.376.568-.285,1.136.267.422.409.545.451.688.231s.175-.231.178.018a2.856,2.856,0,0,0,1.372,1.3,3.671,3.671,0,0,1,1.539,1.442c.1.267.278.383.461.312a.3.3,0,0,1,.4.168.813.813,0,0,0,.532.392,2.817,2.817,0,0,1,.945.579,2.685,2.685,0,0,0,.623.471,5.611,5.611,0,0,1,.9.56,3.335,3.335,0,0,0,1.064.561.25.25,0,0,1,.266.231c0,.149.066.133.184-.045s.185-.194.187-.045c0,.374,1.573,1.9,1.849,1.8a.324.324,0,0,1,.358.091c.063.095.312.129.531.072.239-.062.363-.032.294.071a.307.307,0,0,0,.015.356,10.015,10.015,0,0,0,2.214,1.479c.385.191.715.42.715.5s.276.2.606.266a2.541,2.541,0,0,1,1,.481,1.355,1.355,0,0,0,.725.356.5.5,0,0,1,.44.285,2.109,2.109,0,0,0,.936.632,3.643,3.643,0,0,1,1.073.641,1.694,1.694,0,0,0,.816.409c.312.064.569.188.569.276a3.068,3.068,0,0,0,1.45.645,1.22,1.22,0,0,1,.5.379c.266.3.371.323.615.124s.332-.187.551.116a2.631,2.631,0,0,0,.926.641c.367.156.931.4,1.247.534a2.169,2.169,0,0,0,.725.213c.083-.02.146.045.146.152s.063.166.147.14a4.757,4.757,0,0,1,1.78.6,4.179,4.179,0,0,0,1.3.16,4.579,4.579,0,0,1,1.761.346,3.852,3.852,0,0,0,2.77-.1,1,1,0,0,1,.615-.214,2.169,2.169,0,0,0,1.018-.508,31.777,31.777,0,0,1,6.275-3.31c.385-.167.715-.426.715-.56s.165-.292.385-.348c.6-.155,1.021-1.342.966-2.731a5.273,5.273,0,0,0-.259-1.593,2.644,2.644,0,0,1-.256-.631,7.92,7.92,0,0,0-.458-1.1c-.42-.872-.415-2.117.008-2.117.1,0,.184-.365.184-.81a1.393,1.393,0,0,0-.386-1.148,1.057,1.057,0,0,1-.385-.6c0-.392-.843-1.73-1.064-1.69-.33.062-1.08-.413-.957-.607a.208.208,0,0,1,.3-.071c.266.155.234-.036-.118-.695-.695-1.3-2.576-3.553-2.835-3.4-.109.067-.143.033-.073-.074s-.257-.542-.735-.97a4,4,0,0,1-.862-.935c0-.239-.494-.374-.953-.26-.221.055-.4.012-.4-.095,0-.286-.984-1.16-1.174-1.044-.09.054-.165-.033-.165-.194s-.084-.293-.184-.293-.229-.142-.286-.32c-.1-.316-.557-.629-1.328-.912-.184-.067-.33-.2-.33-.3a2.973,2.973,0,0,0-1.247-1.091,2.224,2.224,0,0,1-.753-.555c-.307-.3-.627-.5-.724-.445s-.225-.035-.285-.2a.464.464,0,0,0-.385-.293.477.477,0,0,1-.393-.32c-.157-.428-.764-1-.91-.855-.063.061-.162-.027-.229-.205a.468.468,0,0,0-.395-.311c-.151,0-.424-.25-.6-.553s-.438-.555-.569-.56-.325-.169-.44-.382a.7.7,0,0,0-.551-.374,1.594,1.594,0,0,1-.844-.579c-.274-.32-.581-.527-.688-.463s-.252-.053-.32-.25a.863.863,0,0,0-.468-.471,1.2,1.2,0,0,1-.559-.57c-.118-.249-.317-.463-.431-.463a2.805,2.805,0,0,1-.89-.6c-.368-.328-1.174-1.058-1.761-1.593-.715-.653-1.145-.924-1.266-.8s-.058.32.174.57.291.448.166.569-.522-.127-1.2-.771c-1.1-1.045-1.268-1.483-.514-1.341.276.051.5.156.5.235s.166.185.385.24.386.026.386-.071-.11-.172-.239-.175c-.33-.009-1.119-.657-1.119-.919,0-.139-.147-.2-.367-.142-.239.057-.336.008-.278-.142.08-.207-.842-.957-1.1-.9-.052.013-.151-.138-.229-.351-.129-.349-.165-.355-.569-.08a1.8,1.8,0,0,1-.578.294c-.169,0-.594-.854-.645-1.3-.019-.16-.045-.39-.061-.525a.293.293,0,0,0-.312-.24c-.165,0-.284-.082-.284-.2s-.193-.346-.431-.533c-.386-.3-.476-.311-.853-.072s-.477.215-1.211-.481a3.44,3.44,0,0,1-.789-.925c0-.391.422-.434.825-.082a5.513,5.513,0,0,0,.715.532c.406.227-.752-1.089-1.467-1.668-.587-.475-.609-.479-.706-.116-.058.214-.026.374.073.374a.188.188,0,0,1,.174.2c0,.3-.661-.109-1.542-.944-.44-.417-.854-.711-.935-.667s-.127-.329-.1-.827c.041-.8,0-.915-.375-.971-.239-.035-.4-.151-.376-.266s-.129-.362-.33-.543c-.33-.3-.376-.3-.376-.036a.551.551,0,0,0,.193.418.652.652,0,0,1,.184.525c-.008.354-.112.3-.78-.392a3.669,3.669,0,0,0-.945-.8.254.254,0,0,1-.236-.177,19.727,19.727,0,0,0-3.35-3.186.279.279,0,0,1-.276-.267c0-.32-.97-1.462-1.119-1.317s-.81-.944-.829-1.353c-.009-.2-.05-.23-.107-.089s-.223.072-.488-.249c-.485-.588-.319-.784.323-.38.531.334.62.2.211-.314a.851.851,0,0,0-1.22-.106c-.183.178-.238.18-.238.009,0-.122-.211-.223-.468-.223-.367,0-.444-.08-.358-.374.08-.272-.164-.641-.9-1.352a10.181,10.181,0,0,1-1.183-1.3.385.385,0,0,0-.486-.2c-.244.09-.286.035-.193-.25.083-.254-.091-.587-.579-1.1-.389-.412-1.082-1.175-1.568-1.726a3.786,3.786,0,0,0-1.11-.988c-.136,0-.227-.134-.211-.312a.391.391,0,0,0-.358-.382.827.827,0,0,1-.736-.961.365.365,0,0,0-.208-.454.482.482,0,0,1-.3-.4c0-.16-.064-.285-.147-.285a4.567,4.567,0,0,1-.908-1.032c-.5-.677-.9-1.032-1.155-1.032-.331,0-.3-.046.174-.286.514-.256.59-.255.8.01a1.208,1.208,0,0,0,.624.374,1.736,1.736,0,0,1,.633.273,12.935,12.935,0,0,0,2.165,1.5,4.588,4.588,0,0,1,1.1.747,6.412,6.412,0,0,0,1.028.747,1.56,1.56,0,0,1,.5.374,1.247,1.247,0,0,0,.688.374c.164,0,.248.085.183.187s.045.187.229.187a1.719,1.719,0,0,1,.78.294c.238.162.431.226.431.142s.132.106.294.427a2.156,2.156,0,0,0,1.064.908c.422.18.77.446.77.587s.119.213.284.151.285.009.285.187a.326.326,0,0,0,.358.294,5.685,5.685,0,0,1,1.651.952,5.845,5.845,0,0,0,1.385.872c.049-.044.34.143.633.409A6.8,6.8,0,0,0,41,71.92a4.984,4.984,0,0,1,1.156.792,1.4,1.4,0,0,0,.587.418,1.317,1.317,0,0,1,.569.333c.623.537,1.762,1.034,2.018.879.168-.1.2-.054.119.159-.063.161-.049.3.028.3a3.029,3.029,0,0,1,.8.56,2.374,2.374,0,0,0,.909.561c.146,0,.256.068.256.16a3.153,3.153,0,0,0,1.055.694,3.272,3.272,0,0,1,1.055.685c0,.085.129.152.294.152a.282.282,0,0,1,.293.276c0,.16.061.264.147.247a3.078,3.078,0,0,1,1.5.723,2.159,2.159,0,0,0,.889.427.483.483,0,0,1,.422.312c.069.178.17.262.239.2s.467.133.889.435a1.694,1.694,0,0,0,1.275.463c.33-.058.39-.04.174.054-.27.116-.137.269.725.836a7.243,7.243,0,0,0,1.531.81c.258.062.477.194.477.285s.092.169.221.169a6.335,6.335,0,0,1,1.348.667,3.064,3.064,0,0,0,1.321.552c.1-.061.193.01.193.152,0,.235.679.542.991.448.07-.021.312.123.532.316s.4.3.4.223.183-.008.4.142a.918.918,0,0,0,.706.161q.3-.116.165.106c-.092.149.028.223.358.223.275,0,.5.072.5.161s.376.319.816.507a4.361,4.361,0,0,1,.909.471.968.968,0,0,0,.476.205c.221.045.362.183.331.32-.039.168.11.205.5.122.66-.141,2.224.388,2.032.688-.065.1-.024.135.086.071a.255.255,0,0,1,.33.062c.071.111.385.042.77-.168.44-.241.675-.287.725-.142.084.244,2.037.212,2.734-.045.33-.122.526-.095.7.1.191.214.186.267-.027.267s-.221.029,0,.168a.814.814,0,0,0,.486.13,3.765,3.765,0,0,0,1.468-.592c.312-.263,1.339-.161,1.339.134,0,.1.091.122.2.053a3.587,3.587,0,0,1,1-.2,2.474,2.474,0,0,0,1.1-.329,2.487,2.487,0,0,1,.779-.392,2.5,2.5,0,0,0,.78-.391,4.717,4.717,0,0,1,1.018-.543c.385-.154.715-.375.715-.481s.075-.15.166-.095c.255.155.651-.421.521-.76-.1-.266-.081-.274.186-.062s.33.2.481-.027c.238-.355.231-.589-.014-.445-.106.063-.183.018-.183-.106s.165-.171.385-.115.385.025.385-.072.129-.118.293-.053q.293.116.4-.285c.059-.214.2-.4.294-.4.592,0,2-2.474,1.97-3.453a2.846,2.846,0,0,1,.158-1.1c.137-.267.124-.318-.055-.205s-.2.01-.1-.4C90.037,77.134,90.05,76.494,89.744,76.494ZM77.3,28.46c.109,0,.193.038.193.088s-.083.139-.193.205-.193.017-.193-.089A.207.207,0,0,1,77.3,28.46ZM77,29.216c.069-.107.155-.187.2-.187s.082.08.082.187a.2.2,0,0,1-.2.187C76.975,29.4,76.938,29.317,77,29.216Zm-.586,0c.068-.107.158-.187.211-.187s.091.08.091.187a.208.208,0,0,1-.211.187C76.4,29.4,76.353,29.313,76.416,29.216Zm.091-3a.209.209,0,0,1,.211.187c0,.107-.039.187-.091.187s-.143-.079-.211-.187S76.4,26.217,76.507,26.217ZM75.2,25.167c.293.077.43.01.5-.249.1-.392.437-.514.437-.161,0,.3-.949,1.124-1.156,1a.516.516,0,0,1-.183-.4C74.792,25.153,74.921,25.094,75.2,25.167Zm.174,2.554a.821.821,0,0,0,.4.133c.049-.021.028.029-.055.125a.5.5,0,0,0-.018.454c.073.179-.045.134-.3-.116a1.393,1.393,0,0,0-.661-.409c-.159,0-.147-.059.037-.178A.633.633,0,0,1,75.37,27.72Zm-1.349-2.535c.182-.214.282-.237.34-.08a.452.452,0,0,1-.137.435C73.9,25.857,73.717,25.54,74.021,25.185Zm-.375,2.785a.4.4,0,0,0,.082-.428c-.072-.1.024-.436.221-.756.3-.5.313-.594.064-.765s-.256-.189,0-.125a.587.587,0,0,1,.348.481c.037.231.148.409.257.409s.141.076.074.178a.358.358,0,0,1-.395.075c-.312-.116-.394.4-.092.579.239.143-.165.592-.531.592C73.5,28.21,73.49,28.148,73.645,27.97Zm-.486-1.593c.119-.189.162-.187.229.009a.4.4,0,0,1-.028.347C73.168,26.92,73,26.626,73.16,26.377Zm-1.651-.993a.511.511,0,0,1,.193.433c-.008.266-.037.27-.2.026C71.267,25.487,71.27,25.242,71.509,25.384Zm-.376,1.4c.11,0,.193.034.193.079s-.082.131-.193.2-.193.026-.193-.08A.2.2,0,0,1,71.132,26.787Zm-1.339-3.7a.316.316,0,0,1,.211.249.3.3,0,0,1-.211.24c-.12.036-.211-.071-.211-.249S69.673,23.044,69.793,23.085Zm-.412,3.88c-.106,0-.184-.116-.184-.276s.031-.276.074-.276.119.115.183.276S69.487,26.965,69.381,26.965Zm-.946-3.533c.349.18.464.165.6-.08.224-.391.419-.391.265,0a.408.408,0,0,0,.121.481c.153.1-.045.139-.523.107-.569-.039-.788-.141-.835-.391C68.011,23.245,68.05,23.233,68.435,23.431Zm-.394-.569c0-.107.035-.188.082-.188s.134.08.2.188.027.187-.083.187A.2.2,0,0,1,68.041,22.862Zm-.211-.916a.278.278,0,0,0,.129-.374c-.08-.124-.058-.213.054-.213s.252.178.322.391c.171.517-.19.913-.533.585C67.6,22.145,67.61,22.079,67.83,21.946Zm-.661,2.616a2.144,2.144,0,0,1,.679.267c.385.211.413.267.137.267-.184,0-.292.088-.229.187s-.018.137-.2.071c-.238-.085-.259-.152-.082-.257s.129-.2-.129-.339C67.142,24.65,67.064,24.562,67.169,24.562Zm-.256-3.951c.1,0,.174.161.174.356,0,.534-.288.614-.32.089C66.751,20.807,66.815,20.611,66.913,20.611Zm.174,4.752a.456.456,0,0,0,.239.374c.135.06,0,.056-.313-.009q-.55-.116-.715.142c-.136.213-.206.218-.4.026s-.165-.231.092-.231a.508.508,0,0,0,.444-.284C66.573,25.024,67.087,25.011,67.087,25.363Zm-1.155-5.126c.22,0,.385.08.385.187s-.165.187-.385.187-.385-.08-.385-.187S65.711,20.237,65.932,20.237Zm-.392,2.456c.189.338.171.351-.177.142-.22-.133-.346-.292-.293-.374C65.222,22.226,65.3,22.266,65.54,22.693Zm-.571-1.709a.209.209,0,0,1,.193.205c0,.119.091.149.22.071s.164-.044.084.08c-.2.317-.69.267-.69-.071C64.775,21.109,64.861,20.984,64.969,20.984Zm-.2,3.56c.108,0,.193.168.193.382s-.085.332-.193.267a.5.5,0,0,1-.193-.383C64.574,24.668,64.664,24.544,64.767,24.544ZM60.8,21.1c-.15-.2-.222-.417-.163-.507.155-.246.217-.178.327.356C61.063,21.412,61.052,21.422,60.8,21.1Zm.735,1.2c-.294,0-.3-.024-.046-.185.367-.23.385-.23.385.007C61.877,22.22,61.721,22.3,61.538,22.3Zm.531,1.967a.478.478,0,0,1-.193-.392c0-.161.081-.276.193-.276s.193.178.193.391S62.175,24.331,62.07,24.269Zm.771-4.032c-.112,0-.194-.116-.194-.276s.081-.276.194-.276.193.115.193.276S62.952,20.237,62.841,20.237Zm1.183,4.841c-.385.21-.483.211-.615.01a.464.464,0,0,1-.027-.436,1.238,1.238,0,0,0,.156-.339c.057-.3.077-.338.193-.338.059,0,.068.169.018.365-.066.259.027.383.321.427C64.482,24.829,64.482,24.829,64.023,25.078Zm.135-5.089c.207.355.073,1-.209,1a.838.838,0,0,0-.458.33c-.231.3-.257.276-.257-.187a.65.65,0,0,1,.293-.623c.192-.07.253-.231.176-.463C63.564,19.614,63.917,19.572,64.159,19.988ZM63.8,18.814a1.231,1.231,0,0,1-.34.329c-.312.237-.318.232-.079-.062C63.645,18.76,63.8,18.659,63.8,18.814Zm.018-2.687a.181.181,0,0,1,.183.187c0,.1-.137.187-.3.187s-.249-.085-.184-.187A.4.4,0,0,1,63.822,16.126Zm-1.046,1.057c.239-.227.643-.132.643.153a.277.277,0,0,1-.276.285C62.813,17.621,62.593,17.358,62.776,17.183Zm.074.625a.193.193,0,1,1-.193-.187A.185.185,0,0,1,62.85,17.808Zm-1.155-.935c.146,0,.2-.049.128-.115s-.034-.231.083-.374.153-.257.082-.257-.038-.161.082-.374c.3-.529.524-.445.524.2,0,.32-.1.552-.248.552s-.206.151-.147.365c.069.249.008.351-.193.321C61.621,17.13,61.365,16.873,61.694,16.873Zm.227,1.922c-.122.142-.176.317-.118.374.208.2-.146.889-.458.889-.239,0-.248-.053-.047-.285.186-.214.193-.284.028-.284-.328,0-.184-1,.165-1.144C61.9,18.181,62.186,18.484,61.922,18.8Zm-.861-1.869c.309.375.515,1.151.267,1-.126-.075-.226-.023-.233.119-.015.273-.388-.5-.492-1.014C60.528,16.659,60.789,16.6,61.06,16.926Zm-.5-2.858c.257-.153.551-.052.551.189,0,.087-.183.115-.4.062C60.41,14.249,60.369,14.18,60.556,14.069Zm.129,4.5c.2,0,.219.067.064.25-.12.142-.152.306-.073.382s-.01.079-.193.012C59.957,19.013,60.1,18.564,60.685,18.564Zm-.743,3.915a.209.209,0,0,1,.211.187c0,.107-.039.187-.091.187s-.143-.079-.211-.187S59.832,22.479,59.942,22.479Zm-.615-8.213a1,1,0,0,0,.321.418c.126.085.073.142-.129.142-.23,0-.333-.134-.32-.418S59.253,14.078,59.327,14.266Zm.385,1.552a.256.256,0,0,1,.128.325c-.121.2-.843-.125-.843-.374C59,15.579,59.364,15.6,59.712,15.818ZM58.8,21.251c.315-.306.749-.231.722.125-.014.178-.095.3-.172.258a.212.212,0,0,0-.266.107.4.4,0,0,1-.3.187C58.527,21.928,58.538,21.5,58.8,21.251Zm-.018,2.834c.051.047-.01.184-.138.308-.146.142-.229.152-.229.027C58.41,24.17,58.642,23.959,58.777,24.085Zm-.487-6.562a.279.279,0,0,1-.375.171c-.408-.155-.349-.447.091-.447Q58.392,17.247,58.291,17.523Zm-.459-4.013c.11,0,.193.061.193.142a1.086,1.086,0,0,1-.193.428c-.152.226-.193.2-.193-.142C57.639,13.706,57.727,13.509,57.832,13.509Zm-1.623,4.859c-.053,0-.143-.08-.211-.187s-.018-.187.091-.187a.208.208,0,0,1,.211.187C56.3,18.288,56.261,18.368,56.209,18.368Zm.944,2.323c-.166.063-.251.035-.189-.062.114-.178.492-.274.492-.125C57.456,20.543,57.318,20.628,57.154,20.691Zm.11-1.477c-.105.063-.193.026-.193-.08a.2.2,0,0,1,.193-.2c.109,0,.193.035.193.08S57.373,19.147,57.264,19.214Zm.193-5.33q0,.373-.284.266A.276.276,0,0,1,57,13.776C57.156,13.387,57.456,13.456,57.456,13.884Zm-.817,2.3a.453.453,0,0,0,.229-.427c0-.374.291-.48.489-.178.064.1.025.178-.085.178s-.2.16-.2.374c0,.267-.095.338-.331.249C56.539,16.3,56.5,16.223,56.64,16.179Zm-.193.476c.4.3.417.343.11.343-.33,0-.844-.346-.844-.57C55.714,16.228,55.988,16.314,56.447,16.656Zm-.834-3.706c.068-.106.158-.187.211-.187s.091.08.091.187a.208.208,0,0,1-.211.187C55.595,13.136,55.55,13.047,55.613,12.949Zm-.638-1.059c.29-.341.548-.286.411.089-.208.569-.3.647-.456.391A.422.422,0,0,1,54.975,11.89Zm-.316,1.815c.179,0,.284.178.284.48,0,.284-.079.434-.193.365a.208.208,0,0,1-.083-.293c.06-.1.018-.178-.092-.178a.2.2,0,0,1-.2-.187C54.374,13.784,54.493,13.706,54.659,13.706ZM53.445,11.2c.293-.306.334-.284.431.232.049.266-.019.409-.2.409C53.273,11.837,53.153,11.5,53.445,11.2Zm-1.83-1.547c.111-.306.209-.3.539.017.236.228.211.263-.174.24C51.705,9.889,51.563,9.789,51.615,9.648Zm.264,6.1a.18.18,0,0,1,.183.187c0,.1-.137.187-.3.187s-.249-.085-.184-.187A.4.4,0,0,1,51.879,15.753Zm-2.138-.178a.187.187,0,1,1,.193-.187A.186.186,0,0,1,49.742,15.575ZM50.4,15.4c.2-.01.32.036.256.1a.392.392,0,0,1-.375.017C50.133,15.455,50.182,15.407,50.4,15.4Zm-.459-1.789a.389.389,0,0,1,.193.294.181.181,0,0,1-.193.178c-.105,0-.193-.133-.193-.294S49.839,13.544,49.944,13.607Zm-.385,1.122c.1.063.193.027.193-.08a.2.2,0,0,1,.193-.2c.111,0,.193.116.193.276s-.166.276-.385.276-.385-.084-.385-.2S49.453,14.666,49.559,14.729Zm-.385-2.144c.109,0,.193.034.193.08s-.083.13-.193.2-.193.027-.193-.08A.2.2,0,0,1,49.174,12.584Zm-.193,1.673c.1,0,.183.124.183.284s-.032.285-.074.285-.121-.125-.183-.285S48.878,14.258,48.981,14.258Zm-.579-7.1c.11,0,.193.038.193.089s-.083.138-.193.2-.193.018-.193-.089A.208.208,0,0,1,48.4,7.156Zm-.119,2.732c.2.075.313.009.313-.187,0-.161.043-.3.091-.3s.092.223.092.49c0,.356-.087.472-.321.427a.551.551,0,0,1-.4-.3C48,9.857,48.082,9.813,48.283,9.888Zm-.375,7.368a.5.5,0,0,1-.4.187c-.165,0-.234-.078-.165-.187a.5.5,0,0,1,.4-.188C47.908,17.069,47.977,17.147,47.908,17.256Zm-.561-6.185c.153-.236.512-.142.615.16q.084.25-.686.05C47.245,11.274,47.277,11.178,47.347,11.072Zm-2.429-.356a.209.209,0,0,1,.211.187c0,.106-.04.187-.092.187s-.143-.08-.211-.187S44.807,10.716,44.918,10.716ZM41.535,4.1c.061.16.028.234-.075.168a.373.373,0,0,1-.183-.293C41.276,3.709,41.412,3.775,41.535,4.1ZM36.461,8c-.105.064-.193.027-.193-.079a.2.2,0,0,1,.193-.2c.109,0,.193.035.193.08S36.57,7.935,36.461,8ZM37,3.176c.042.027-.037.154-.184.3-.273.265-.752.231-.752-.053C36.066,3.271,36.836,3.072,37,3.176Zm-.927-.683a.187.187,0,1,1-.193.188A.185.185,0,0,1,36.075,2.493ZM24.527,5.91c-.188.183-.209.161-.1-.107.073-.178.185-.287.238-.231S24.656,5.786,24.527,5.91ZM23.757,7.9a.2.2,0,0,1-.2-.187c0-.106.036-.187.083-.187s.134.08.2.187S23.867,7.9,23.757,7.9Zm-.881,6.051a.438.438,0,0,1,.372.249c.109.284.069.3-.353.142C22.509,14.2,22.5,13.955,22.876,13.955Zm.285,3.114a.187.187,0,1,1,.193-.187A.185.185,0,0,1,23.16,17.069Zm.275-1.494c-.152,0-.266-.161-.266-.374s.071-.374.166-.374.208.161.266.374Q23.7,15.574,23.435,15.575Zm0-5.054c-.164,0-.249-.085-.183-.188a.4.4,0,0,1,.3-.186.18.18,0,0,1,.184.186C23.738,10.435,23.6,10.52,23.435,10.52Zm.3,2.8c0-.106.036-.187.082-.187s.134.08.2.187.027.187-.083.187A.2.2,0,0,1,23.738,13.323Zm.376,2.252c-.11,0-.154-.09-.092-.187s.159-.188.211-.188.092.08.092.188A.209.209,0,0,1,24.115,15.575Zm-.175-1.709c0-.1.12-.07.266.062s.235.273.2.312C24.3,14.349,23.939,14.061,23.939,13.866Zm.8,4.5c-.083,0-.156-.125-.156-.267s.073-.222.156-.169a.33.33,0,0,1,.156.267A.154.154,0,0,1,24.738,18.368Zm.046-9.829c-.147-.054-.228-.176-.173-.262a.337.337,0,0,1,.54-.053C25.36,8.427,25.1,8.655,24.784,8.539Zm2.751-4.622c-.07.068-.266.015-.431-.116-.239-.19-.249-.275-.046-.4.348-.22.4-.2.276.108-.062.16-.015.284.109.284S27.61,3.845,27.536,3.917Zm.256,5.49a.193.193,0,1,1,.193.187A.186.186,0,0,1,27.792,9.407Zm0-7.3a.177.177,0,0,1,.175-.187.4.4,0,0,1,.293.187c.067.105-.01.187-.174.187S27.792,2.216,27.792,2.111Zm.4,18.553c-.193.188-.214.169-.109-.1.069-.178.179-.284.238-.231S28.324,20.54,28.2,20.664Zm-.22-18.983c-.642.025-.685-.024-.345-.4.227-.25.73-.384.73-.2a1.467,1.467,0,0,0,.1.32C28.531,1.579,28.379,1.664,27.976,1.681Zm1.3-.514c-.239,0-.327-.053-.193-.107s.195-.179.137-.267.027-.116.193-.053.3.189.3.276S29.516,1.172,29.278,1.167Zm1.238.579c-.087,0-.156-.125-.156-.284s.069-.284.156-.284.157.124.157.284S30.6,1.746,30.516,1.746Zm2.3,16.5c-.189.183-.212.161-.11-.107.068-.178.18-.287.238-.231S32.947,18.12,32.819,18.244Zm.5-17.325a.394.394,0,0,1-.376.017c-.15-.057-.1-.1.12-.115C33.268.811,33.387.856,33.323.918Zm.825,20.814a.187.187,0,1,1,.193-.187A.185.185,0,0,1,34.149,21.732Zm1-4.4c-.161.156-.623-.267-.623-.569,0-.391.526-.3.637.106A.6.6,0,0,1,35.149,17.336Zm.045-15.4c-.062-.1-.017-.187.092-.187a.208.208,0,0,1,.211.187c0,.107-.039.187-.092.187S35.263,2.039,35.194,1.933Zm2.138,25.779c-.052,0-.143-.08-.211-.187s-.018-.187.092-.187a.208.208,0,0,1,.211.187C37.424,27.631,37.384,27.712,37.332,27.712Zm1.825,1.041c-.1.06-.193.017-.193-.089a.207.207,0,0,1,.193-.2c.11,0,.193.038.193.088S39.267,28.687,39.157,28.753Zm3.477,2.323a.2.2,0,0,1-.2-.187c0-.106.036-.187.082-.187s.134.08.2.187S42.743,31.076,42.634,31.076Zm1.559,2.737c-.424.308-.5.2-.221-.316.172-.32.254-.355.376-.16C44.449,33.5,44.394,33.665,44.193,33.812Zm3.238-.673c-.105,0-.193-.133-.193-.293s.087-.241.193-.178a.389.389,0,0,1,.193.293A.181.181,0,0,1,47.431,33.14Zm4.035,4.485c-.11,0-.154-.09-.092-.187s.159-.187.212-.187.091.079.091.187A.209.209,0,0,1,51.466,37.625Zm.413-1.5a.4.4,0,0,1-.3-.187c-.065-.1.018-.187.184-.187s.3.084.3.187A.181.181,0,0,1,51.879,36.13Zm2.862,15.323c-.11,0-.147-.085-.082-.187s.155-.187.2-.187.083.08.083.187A.2.2,0,0,1,54.741,51.453Zm3.21-9.4c-.193.187-.358-.106-.2-.356.119-.189.161-.187.228.009A.4.4,0,0,1,57.951,42.056Zm.213-1.619c-.3.463-.524.47-.524.017q0-.641.5-.465C58.341,40.063,58.346,40.152,58.164,40.437Zm2.668,2.682c-.33-.124-.4-.262-.129-.262a.4.4,0,0,1,.3.187C61.073,43.149,61,43.183,60.832,43.12Zm2.7,10.2c-.052,0-.142-.079-.211-.187s-.018-.187.092-.187a.209.209,0,0,1,.211.187C63.62,53.242,63.581,53.321,63.528,53.321ZM.541,43.231c-.047,0-.134-.08-.2-.187s-.027-.187.083-.187a.2.2,0,0,1,.2.187C.623,43.151.588,43.231.541,43.231Zm1.036-.748c-.11,0-.148-.084-.082-.187s.155-.187.2-.187.083.08.083.187A.2.2,0,0,1,1.577,42.483Zm.523,6.2c-.06.144-.1.1-.109-.116-.006-.2.04-.3.1-.24A.4.4,0,0,1,2.1,48.686Zm.248-4.156a.2.2,0,0,1,.2.187c0,.107-.036.187-.083.187s-.134-.079-.2-.187S2.238,44.53,2.348,44.53Zm.2,5.009c-.385.024-.5-.16-.257-.4a.378.378,0,0,1,.582.2C2.909,49.437,2.77,49.524,2.55,49.539Zm2.128-.15a.2.2,0,0,1-.2-.187c0-.106.036-.187.083-.187s.134.08.2.187S4.788,49.389,4.678,49.389Zm1.715,7.475c-.109,0-.154-.089-.092-.187s.159-.187.212-.187.091.08.091.187A.208.208,0,0,1,6.393,56.863Zm.771,1.122c-.11,0-.155-.09-.092-.187s.159-.187.211-.187.091.079.091.187A.208.208,0,0,1,7.164,57.985Zm1.658-22.62a.444.444,0,0,1-.319.2c-.1,0-.072-.124.067-.266C8.841,35.012,9.017,35.063,8.822,35.364Zm.387,12.529c-.052,0-.142-.08-.211-.187s-.018-.187.092-.187a.208.208,0,0,1,.211.187C9.3,47.813,9.261,47.893,9.209,47.893ZM12.576,61.82c-.105.063-.193.026-.193-.08a.2.2,0,0,1,.193-.2c.11,0,.193.034.193.08S12.686,61.754,12.576,61.82Zm.77-22.8a.393.393,0,0,1-.193-.3c0-.107.082-.137.193-.072a.394.394,0,0,1,.193.3C13.538,39.057,13.456,39.088,13.346,39.021Zm5.778.944c-.1.061-.193.018-.193-.089a.208.208,0,0,1,.193-.2c.11,0,.193.038.193.089S19.234,39.9,19.124,39.965Zm3.834,2.323c-.109,0-.154-.089-.091-.187s.158-.187.211-.187.091.08.091.187A.208.208,0,0,1,22.958,42.288ZM69.49,125.632c.165,0,.294.035.294.08s-.129.127-.294.187-.293.025-.293-.08S69.326,125.632,69.49,125.632Zm-3.953-22.977c.11,0,.193.035.193.08s-.082.13-.193.2-.193.026-.193-.08A.2.2,0,0,1,65.537,102.655ZM65,100.964c.082,0,.1.125.034.285-.119.3-.456.394-.456.124A.462.462,0,0,1,65,100.964ZM59.373,96.48c.109,0,.193.038.193.089s-.083.138-.193.2-.193.018-.193-.089A.207.207,0,0,1,59.373,96.48Zm-1.642-.654c.459-.334.5-.334.5,0,0,.166-.184.286-.44.286C57.365,96.106,57.363,96.095,57.731,95.826Zm-2.009,10.193a.187.187,0,1,1-.193.187A.185.185,0,0,1,55.722,106.019ZM54.47,99.274c.086-.135.189-.135.335,0,.11.1.159.247.1.3C54.722,99.756,54.335,99.488,54.47,99.274Zm-5.187-9.458a.376.376,0,0,1,.018.355c-.06.144-.107.1-.119-.115C49.173,89.86,49.218,89.751,49.283,89.815Zm-.789,4.368c.165.063.284.138.284.178s-.119.072-.284.072-.285-.075-.285-.178S48.33,94.122,48.494,94.183Zm-6.851,20.432a.2.2,0,0,1,.2.187c0,.106-.035.187-.082.187s-.133-.08-.2-.187S41.533,114.615,41.643,114.615ZM35.2,96.6c.165.06.293.137.293.178s-.128.071-.293.071-.293-.077-.293-.178S35.038,96.545,35.2,96.6ZM28.26,67.889c.068-.106.159-.187.211-.187s.092.08.092.187a.209.209,0,0,1-.211.187C28.242,68.075,28.2,67.986,28.26,67.889Zm13.4-1.432c0-.231.053-.242.285-.053.164.133.241.3.182.391C41.972,67.038,41.661,66.812,41.661,66.456Zm4.412-9.967A.177.177,0,0,1,45.9,56.3c0-.105.129-.187.293-.187s.241.081.174.187A.4.4,0,0,1,46.073,56.49Zm20.436-8.4A.187.187,0,1,1,66.7,47.9.185.185,0,0,1,66.509,48.089Zm1.137,34.759c-.109,0-.154-.09-.092-.188s.159-.187.211-.187.092.08.092.187A.209.209,0,0,1,67.647,82.848Zm.4.747a.187.187,0,1,1,.193-.187A.186.186,0,0,1,68.05,83.595Zm.569-35.506c.11,0,.193.035.193.08s-.082.13-.193.2-.193.026-.193-.08A.2.2,0,0,1,68.619,48.089Zm-.184,4.663c-.111,0-.146-.116-.082-.276s.145-.276.193-.276.082.115.082.276S68.548,52.752,68.435,52.752Zm.468,2.812c-.242.19-.273.178-.173-.072.105-.267.466-.446.466-.231C69.2,55.3,69.068,55.434,68.9,55.565Zm.67-5.606c-.11,0-.154-.09-.092-.188s.159-.187.211-.187.092.08.092.187A.209.209,0,0,1,69.573,49.959Zm.644,5.606c-.017-.214.049-.328.154-.267a.483.483,0,0,1,.184.374C70.555,56.087,70.251,55.991,70.217,55.565Zm2.255-.57a.187.187,0,1,1,.193-.187A.185.185,0,0,1,72.472,54.995Zm.394,2.064a.2.2,0,0,1-.2-.187c0-.106.036-.187.082-.187s.133.08.2.187S72.976,57.059,72.865,57.059Zm.166-4.519c-.172.033-.289-.107-.312-.374-.024-.285.015-.345.119-.178.089.142.211.242.284.232C73.393,52.183,73.306,52.488,73.031,52.54Zm.3-1.274c.068-.106.159-.187.211-.187s.092.08.092.187a.209.209,0,0,1-.211.187C73.315,51.453,73.272,51.364,73.334,51.266Zm.678,1.958c-.1.063-.193.027-.193-.08a.2.2,0,0,1,.193-.2c.11,0,.193.035.193.08S74.123,53.158,74.012,53.224Zm1.431,1.37c-.275-.267-.256-.285.2-.2.368.072.45.151.3.293S75.663,54.808,75.444,54.594Zm.606,3.017c-.047,0-.135-.08-.2-.188s-.027-.187.082-.187a.2.2,0,0,1,.2.187C76.132,57.531,76.1,57.611,76.049,57.611Zm.275-1.282c-.21.712-.491,1.029-.314.356a3.814,3.814,0,0,0,.121-.7c0-.125.088-.24.183-.24C76.426,55.743,76.43,55.974,76.324,56.329Zm.33,2.074c-.06.144-.108.1-.119-.116-.011-.2.035-.3.1-.24A.378.378,0,0,1,76.654,58.4Zm.633-.5c-.114.066-.158.347-.1.649s.037.573-.046.622c-.171.1-.287-1.316-.129-1.565.148-.232.478-.232.478,0A.4.4,0,0,1,77.287,57.9Zm.376-2.376c-.459.052-.461.047-.1-.227.459-.35.754-.376.646-.057C78.166,55.371,77.92,55.5,77.663,55.529Zm.394,2.091a.193.193,0,1,1,.193.187A.185.185,0,0,1,78.057,57.62Zm.5,1.451c-.327.3-.335.293-.119-.116.122-.231.286-.381.348-.32S78.737,58.9,78.553,59.071ZM79.9,87.706c-.046,0-.133-.08-.2-.187s-.028-.187.082-.187a.2.2,0,0,1,.2.187C79.984,87.625,79.948,87.706,79.9,87.706Zm.376-.872c-.166.06-.293.029-.293-.071s.128-.178.293-.178.293.031.293.071S80.443,86.774,80.277,86.834Zm.66.5c-.109,0-.147-.085-.082-.187s.155-.187.2-.187.082.08.082.187A.2.2,0,0,1,80.937,87.332Zm4.669-22.914c-.083.052-.156-.027-.156-.169,0-.32.057-.35.2-.106A.189.189,0,0,1,85.607,64.418Zm.936,18.331c-.105.064-.193.027-.193-.079a.2.2,0,0,1,.193-.2c.11,0,.193.035.193.08S86.653,82.683,86.542,82.749Zm1.333.365c-.256.253-.607-.142-.46-.516.116-.294.147-.293.383.009C87.951,82.8,87.982,83.008,87.875,83.114Zm.6-8.311a.2.2,0,0,1-.2-.187c0-.106.036-.187.083-.187s.134.08.2.187S88.588,74.8,88.478,74.8Zm.3-6.069c.11-.277.455-.2.455.106,0,.1-.119.178-.285.178S88.7,68.912,88.775,68.734Zm.094,11.123c-.043-.125.031-.2.16-.161s.23.137.221.214C89.222,80.144,88.955,80.106,88.869,79.857Z" transform="translate(133.449) rotate(90)"/></svg>