<svg xmlns="http://www.w3.org/2000/svg" width="971" height="141.644" viewBox="0 0 971 141.644"><path d="M251.2 273.96c-2.9.142-5.87.092-8.844.041a105.038 105.038 0 0 0-11.156.2 11.29 11.29 0 0 1-3.747-.231 43.727 43.727 0 0 0-9.165-.986c-2.152-.113-4.259-.105-6.366-.1a78.492 78.492 0 0 1-9.411-.347 29.063 29.063 0 0 0-5.881.165 30.586 30.586 0 0 1-5.93-.013c-2.039-.217-4.03-.178-6.062-.3a16.624 16.624 0 0 1-2.29-.388c-.216-.046-.583-.252-.616-.366-.085-.311-.216-.768.007-.894.689-.379 1.621-.56 2.3-.94 2.061-1.144 4.514-1.379 7.623-.447a6.032 6.032 0 0 0 3.655.055c2.048-.711 4.55-.727 6.812-1.11.163-.028.333-.307.257-.389-.277-.293-.662-.734-1.006-.8a16.016 16.016 0 0 0-3.807-.475 55.892 55.892 0 0 1-10.573-.559 49.016 49.016 0 0 0-8.316-.432c-4.1.232-8.075.747-11.99 1.318a20.657 20.657 0 0 1-6.649-.107c-2.055-.355-4.093-.439-6.129-.635-2.3-.222-4.6-.478-6.881-.639a12.252 12.252 0 0 1-7.708-3.238 4.842 4.842 0 0 0-4.88-1.034 8.2 8.2 0 0 1-2.7.454c-4.029-.22-7.951.051-12.188-1.048-1.024-.266-2.071-.366-3.1-.537a4.4 4.4 0 0 0-2.763.254c-2.632 1.354-5.873 1.623-9.678.947-.753-.134-1.495-.08-2.249-.174v-14.86c1.3.683 2.836.819 3.563.208.221-.183.014-.639 0-.969a6.687 6.687 0 0 0-1.225-.77 4.294 4.294 0 0 0-2.341-.184v-20.985a.612.612 0 0 0 .125-.328.281.281 0 0 0-.125-.22v-47.645c.682-.158 1.333-.306 1.987-.449.827-.177 1.757-.234 1.83-1.028.053-.528-1.61-1.085-3.549-1.111h-.268v-18.87a20 20 0 0 1 20-20h103.4l.075.313.464-.142-.319-.171h28.485a.858.858 0 0 0 .367.414 8.462 8.462 0 0 0 2.611 1.249c2.969.545 5.932.79 8.89 1.4a20.764 20.764 0 0 0 7.614.309 12.323 12.323 0 0 1 6.721.852c3.124 1.277 4.994.455 6.511-.825.951.288 1.584.157 1.849-.355 1.223.585 2.48 1.128 3.661 1.759a8.4 8.4 0 0 0 6.52.768c.792-.221 1.309-.762 2.092-1a2.854 2.854 0 0 1 2.637.77c.661.561 1.394 1.085 2.078 1.61 2.806-.5 5.4-.953 7.983-1.443 1.661-.315 2.237-1.178 1.564-2.526-.7-1.387-.354-2.334.818-2.98h2.475a1.461 1.461 0 0 1 .505.624c.18.464.172.924.351 1.386.522 1.323 1.248 1.722 2.894 1.532a19.343 19.343 0 0 0 3.417-.632c.371-.114.358-.707.383-1.111.013-.175-.275-.454-.514-.637-.5-.387-1.06-.739-1.587-1.109l-.074-.052h6.912q.48.207.964.4a3.5 3.5 0 0 0 1.9.23q1.046-.31 2.079-.635h716.276a20 20 0 0 1 20 20v23.178q-1.172-.008-2.335 0a43.089 43.089 0 0 1-9.667-.7 33.677 33.677 0 0 0-5.828-.537c-2.022-.068-4.024-.068-6.027-.067h-2.578c-7.007-.043-14.462-1.813-21.391-1.506a24.106 24.106 0 0 1-3.924-.424 6.137 6.137 0 0 1-4.21-2.182 9.36 9.36 0 0 0-3.525-2.932c-1.968-.932-4.334-.55-4.424.819a5.181 5.181 0 0 0 .117 1.36 3.812 3.812 0 0 1-1.826 4.036c-1.723 1.26-3.422 2.528-5.043 3.729a6.648 6.648 0 0 1-1.222-.283c-2.038-1.017-3.75-1.238-5.24-.257-1.427.935-3.029 1.742-4.55 2.605a11.5 11.5 0 0 0-7.266-1.335c-1.68.283-3.3.648-4.948.978a19.658 19.658 0 0 0-11.363-1.883 49.432 49.432 0 0 1-12.229-.02 30.206 30.206 0 0 0-6.394.343c-2.1.164-4.254.54-6.646-.345a15.87 15.87 0 0 0-7.629-.831c-2.372.269-4.94.215-7.332.354-.981-.342-1.962-.685-2.821-1a12.311 12.311 0 0 0-5.824-1.323q-5.033.437-9.97 1.029a1.494 1.494 0 0 0-1.111.831 2.87 2.87 0 0 0 .73 3.327 3.43 3.43 0 0 0 1.654.925 1.663 1.663 0 0 0 1.409-.491c.458-.733.556-1.629 1.037-2.354.172-.264.992-.229 1.545-.3a1.432 1.432 0 0 1 .4.542c.454 2.837 1.3 3.614 4.408 3.951 2.3.253 4.636.568 6.881.644 5.794.2 11.616.445 16.714-.814a5.722 5.722 0 0 1 2.624-.209c4.745 1.187 9.024.338 13.715 1.284a13.553 13.553 0 0 0 3.737-.085c1.841-.143 3.585-.676 5.476-.474a58.692 58.692 0 0 0 7.456.185 61.4 61.4 0 0 1 6.965.139 53.3 53.3 0 0 0 11.277-.35 22.246 22.246 0 0 0 4.428-.626 5.678 5.678 0 0 1 3.208.174 7.2 7.2 0 0 0 2.529.319 25.093 25.093 0 0 1 8.668.624 12.994 12.994 0 0 0 3.082.2 23.641 23.641 0 0 1 1.725.015c1.285.073 2.595.206 3.9.369a3.662 3.662 0 0 1 2.779 2.156 12.048 12.048 0 0 1 .052 1.345 9.9 9.9 0 0 0 .151 1.352 3 3 0 0 0 2.353 1.417c2.833-.039 5.635-.566 8.486-.064 7.693 1.353 14.945.845 22.609 2.191a2.719 2.719 0 0 0 2.975-.954c.467-.765 1.039-1.7 2.382-1.524a26.247 26.247 0 0 0 5.822-.072 36.048 36.048 0 0 1 4.027-.2v29.109a5.011 5.011 0 0 0-2.713 1.294 6.079 6.079 0 0 1-4.552 1.567c-1.68-.021-3.309.083-4.937.185a41.139 41.139 0 0 1-8.346-.051c-2.911-.394-4.906.171-6.324 1.583-.9.9-2.356 1.046-4.2.391-1.463-.519-2.759-.537-3.184.4-.814 1.8-2.7 1.782-5.341.915-1.338-.439-2.839-.6-3.664-.023a8.831 8.831 0 0 1-7.233 1.685 6.886 6.886 0 0 0-3.334.671 14.049 14.049 0 0 1-6.256.682 20.361 20.361 0 0 0-4.767-.093c-6.219 1-12.986.844-19.553 1.109a47.662 47.662 0 0 0-8.273.642 35.449 35.449 0 0 1-9.228.547 116.1 116.1 0 0 0-23.236 1.307 88.76 88.76 0 0 1-16.8.8c-2.245-.063-4.523-.168-6.7-.082q-14.094.551-28.128 1.224c-5.647.275-11.232.675-16.861.977a1.432 1.432 0 0 0 .017.869c.827 2.39 0 4.539.95 6.943.364.909-.563 1.749-1.8 1.7-2.064-.077-4.064.005-6.066.088a51.885 51.885 0 0 1-9.582-.212c-2.336-.328-3.8.54-4.009 1.964-.226 1.516-.416 3.039-.62 4.561-.086.624.843 1.5 1.885 1.788a9.669 9.669 0 0 0 1.535.413 65.424 65.424 0 0 0 10.554.416 3.2 3.2 0 0 0 1.249-.357 2.482 2.482 0 0 0 .758-.733c.3-.382-.394-1.266-1.1-1.372-1.02-.153-2.039-.177-3.048-.391a1.743 1.743 0 0 1-1-.816.7.7 0 0 1 .535-.772 100.7 100.7 0 0 1 6.591-.207 11.069 11.069 0 0 1 2.3.522c.827.207 1.427.856 1.188 1.31a8.419 8.419 0 0 1-.645.828 1 1 0 0 0 .241 1.477 3.161 3.161 0 0 0 2.13.689h.742a19.8 19.8 0 0 1 2.219.069 2.324 2.324 0 0 1 1.263.659c.171.24.016.781-.255.828a133.787 133.787 0 0 1-13.739 2.156q-6.475.49-12.919 1.033a5.513 5.513 0 0 0-3.582 1.205 4.764 4.764 0 0 1-3.558 1.224c-1.312-.017-2.587.063-3.86.143a31.943 31.943 0 0 1-6.505-.042c-2.27-.307-3.833.138-4.934 1.238-.707.7-1.843.815-3.283.3-1.145-.4-2.156-.417-2.482.314-.641 1.4-2.11 1.393-4.177.714a3.55 3.55 0 0 0-2.855-.016 6.884 6.884 0 0 1-5.645 1.314 5.411 5.411 0 0 0-2.607.525 10.941 10.941 0 0 1-4.874.534 15.9 15.9 0 0 0-3.728-.073c-4.848.777-10.128.66-15.257.866a37.271 37.271 0 0 0-6.46.5 27.5 27.5 0 0 1-7.2.429 90.654 90.654 0 0 0-18.141 1.02 69.338 69.338 0 0 1-13.112.622c-1.748-.05-3.528-.131-5.229-.064q-10.993.429-21.958.954c-4.86.238-9.663.6-14.53.842a47.768 47.768 0 0 1-7.414.059 33.16 33.16 0 0 0-10.124.515 20.77 20.77 0 0 1-6.466.457 28.327 28.327 0 0 0-8.706.418 9.309 9.309 0 0 1-5.963-.935 13.343 13.343 0 0 0-1.471-.617 3.793 3.793 0 0 0-3.413.2c-.477.319-.89.687-1.367 1.005a4.035 4.035 0 0 1-4.051.249c-2.344-1.022-4.459-1.53-6.589-.855a10.449 10.449 0 0 1-2.93 0 19.851 19.851 0 0 0-3-.16c-6.052.821-12.651.5-18.854 1-1.625.13-3.32.13-5.015.13h-1.643a9.666 9.666 0 0 1-4.531-1.157c-1.131-.581-2.151-1.461-3.789-1.349a34.845 34.845 0 0 1-2.216 2.755 3.042 3.042 0 0 1-1.667.706 4.228 4.228 0 0 1-2.8-.945c-2-.142-3.992-.2-6.008-.451-1.9-.228-3.406-.111-4.583.745-1.908 1.4-4.931 1.462-7.758 1.71a5.48 5.48 0 0 1-4.106-1.715c-.7-.857-1.208-1.774-2-2.6a5.076 5.076 0 0 0-2.819-1.2c-1.044-.176-1.982.43-1.617 1.132s.926 1.411 1.327 2.121c.4.731-.16 1.278-1.363 1.283a11.254 11.254 0 0 1-1.418-.2c-1.435-.135-2.581-.508-2.871-1.736a8.582 8.582 0 0 0-.6-1.619 2.082 2.082 0 0 0-2.009-.715 5.1 5.1 0 0 0-1.084.523c-1.069.744-2.306.879-4-.077a15.979 15.979 0 0 0-2.152-.993 4.311 4.311 0 0 0-2.93-.171c-.985.358-1.854.834-2.942 1.334a34.639 34.639 0 0 0-4.411-1.236c-1.782-.259-3.514-.167-5.284-.275-1.005-.062-2.041-.224-3.066-.326-3.579-.357-7.173-.763-10.737-1.027a13.535 13.535 0 0 0-3.526.31 7.114 7.114 0 0 1-3.65-.156 18.072 18.072 0 0 0-3.823-.659c-4.08-.317-8.149-.606-12.19-.806a98.967 98.967 0 0 0-17.042.16 80.89 80.89 0 0 1-10.21.458c-3.467-.01-7.1-.5-10.12.5a6.483 6.483 0 0 1-2.257.086 13.75 13.75 0 0 0-1.41-.048 25.3 25.3 0 0 0-5.009.345c-2.3.6-5.2.636-6.372 2.4-.3.441-2.194.113-2.833-.391-.774-.611-1.466-1.268-2.246-1.874a22.207 22.207 0 0 0-2.431-1.725 1.782 1.782 0 0 0-1.313-.028 13.006 13.006 0 0 0-.913 1.784 1.906 1.906 0 0 1-2.09.93 2.255 2.255 0 0 1-1.472-1.351 3.194 3.194 0 0 0-.276-.544 2.742 2.742 0 0 0-2.611-1.117 15.256 15.256 0 0 0-2.359.811 10.614 10.614 0 0 0-5.731-2.038q-6.4-.293-12.737-.36a26.252 26.252 0 0 0-4.24.414 2.192 2.192 0 0 0-1.884 1.205c-.239.628-.163 1.395-.571 1.922a3.924 3.924 0 0 1-2.149 1.67 62.191 62.191 0 0 1-14.963 1.091 10.937 10.937 0 0 0-4.032-.321 15.963 15.963 0 0 1-2.753-.028c-.544-.692-1.06-1.382-1.637-2.059a2.2 2.2 0 0 0-2.046-.512 46.874 46.874 0 0 0-2.1 1.731c-2.679 2.3-6.192 3.463-11.451 1.937a11.809 11.809 0 0 0-6.559-.2 4.462 4.462 0 0 1-.7.075 2.772 2.772 0 0 1-2.452-1.337c-.354-.719-.57-1.449-.931-2.167a2.633 2.633 0 0 0-2.576-1.118c-.956.068-1.854.234-2.78.357l.139.046c-1.516-.127-3.068-.34-4.54-.358-2.237-.025-4.414.115-6.638.128a9.8 9.8 0 0 1-4.568-.832 11.12 11.12 0 0 0-9.278-.915c-1.595.55-3.568.7-5.245 1.161a14.444 14.444 0 0 1-7.934-.009c-4.238-1.116-8.117-1.049-11.267.458a37.907 37.907 0 0 1-4.109 1.427c-.579-.392-1.164-.778-1.716-1.182a3.98 3.98 0 0 0-2.659-1.072c-1.243.1-2.313 1.094-2.162 2.02a1.682 1.682 0 0 0 .738.945c.839.49 1.774.89 2.672 1.324a3.788 3.788 0 0 1-3.926 2.082 21.668 21.668 0 0 0-7 .787 4.115 4.115 0 0 1-2.21-.2c-3.775-1.389-7.18-1.75-10.156-.535a4.352 4.352 0 0 1-2.873.049 10.474 10.474 0 0 0-6.984.394 40.191 40.191 0 0 0-5.438 2.458 43.057 43.057 0 0 0-6.294-.658Zm350.544-1.727a.69.69 0 0 0-.085.161l.424-.3a1.1 1.1 0 0 0-.335.139Zm12.674-1.988a9.813 9.813 0 0 0 1.051.556c.445-.13.564-.421.142-.708a3.161 3.161 0 0 0-1.167-.246c-.032 0-.115.335-.022.398Zm7.7-1.044c.016.1.3.227.473.343.11-.1.333-.181.314-.293-.015-.1-.3-.227-.466-.344-.112.093-.339.181-.318.293Zm-407.614.192a1 1 0 0 0 .675.04c.427-.2.4-.539-.081-.882a.883.883 0 0 0-.449-.05h-.241c-.377.231-.381.552.099.892Zm146.575-1.535c.03-.119.114-.237.074-.36a.954.954 0 0 0-.157-.233Zm-91.262-2.85a.41.41 0 0 0-.118.473 4.059 4.059 0 0 0 3.633 1.971 1.133 1.133 0 0 0 1.055-1.513 2.317 2.317 0 0 0-.445-.554 5.152 5.152 0 0 0-2.664-.73 2.582 2.582 0 0 0-1.458.352Zm91.276 1.615a.48.48 0 0 0-.064.25c.16-.131.326-.263.492-.4-.142.049-.362.063-.421.148Zm-78.45-1.005a7.567 7.567 0 0 0-1.886.425c-.059.021.1.287.2.543a14.761 14.761 0 0 0 2.151.132c.378-.029.579-.375.859-.578a4.837 4.837 0 0 0-1.3-.522Zm568.362-15.361a1.724 1.724 0 0 0 .509 2.017c.47.111 1.228.4 1.363.294a4.766 4.766 0 0 0 1.272-1.547c.382-.774-.251-1.544-1.277-1.735a3.353 3.353 0 0 0-.6-.062 1.158 1.158 0 0 0-1.264 1.031Zm-309.73-5.249c0 .16.182.35.28.528.2.145.4.382.6.421a19.132 19.132 0 0 0 3.063.515c4.514.122 8.986.148 13.491.25a47.941 47.941 0 0 1 6.057.323c4.009.6 7.409-.009 10.943-.355a1.277 1.277 0 0 0 .949-.583 1.4 1.4 0 0 0-.1-1.014 1.142 1.142 0 0 0-.585-.433 7.187 7.187 0 0 0-1.5-.394c-.767-.091-1.508-.031-2.276-.134-2.561-.344-5.143-.82-7.69-1.075-2.284-.228-4.517-.182-6.8-.351a11.584 11.584 0 0 0-4.308.249c-2.563.84-5.69.4-8.671.252-.4-.019-.749-.03-1.064-.03-1.89-.002-2.412.393-2.386 1.829Zm-438.436-9.263c-.341.341-.652 1-.356 1.358.833 1.017 2.1 1.921 3 2.929s1.48 2.128 2.344 3.161a4.993 4.993 0 0 0 3.327 1.757 113.469 113.469 0 0 1 11.557 1.661c1.563.286 3.1-.964 2.932-2.16a2.169 2.169 0 0 0-.29-.541 6.028 6.028 0 0 0-1.253-.814c-1-.352-2.041-.57-3.059-.881-.791-.244-1.361-.92-1.175-1.4.239-.63.587-1.226.833-1.854a1.37 1.37 0 0 0-.915-1.472c-2.773-.792-5.456-2.01-8.379-1.8-1.609.115-3.56-.46-5.34-.618a9.269 9.269 0 0 0-.809-.038 3.41 3.41 0 0 0-2.414.71Zm264.878 9.4c-.849.169-1.131.741-.689 1.151a1.271 1.271 0 0 0 .667.3c.792.034 1.393-.165 1.595-.68.049-.128-.118-.334-.187-.5a7.658 7.658 0 0 0-1.246-.277.733.733 0 0 0-.137.004Zm152.658-1.525a.666.666 0 0 0-.363.806 2.484 2.484 0 0 0 1.067.823 4.048 4.048 0 0 0 1.48.412c4.19.138 8.378.26 12.542.321a4.326 4.326 0 0 0 1.872-.473c.316-.15.356-.541.519-.825-.359-.279-.782-.784-1.063-.8q-7.077-.385-14.1-.639h-.133a5.053 5.053 0 0 0-1.818.373Zm-39.975-4.043a.6.6 0 0 0-.338.359.7.7 0 0 0 .027.507c.66 1.4 1.332 2.795 2.092 4.381.918.211 1.892.465 2.855.649.8.152 1.516.038 1.57-.525a1.771 1.771 0 0 0-.408-1.516c-1.61-1.345-3.4-2.6-5.145-3.868a.474.474 0 0 0-.252-.049 1.243 1.243 0 0 0-.401.062Zm128.022 5.069c.021.086.261.2.409.3.09-.087.272-.169.256-.268s-.262-.2-.4-.3c-.1.09-.282.169-.265.268Zm-142.664-3.5a.355.355 0 0 0-.106.463 3.406 3.406 0 0 0 .93.964c.511.32 1.018.267 1.222-.056.077-.122-.048-.335-.089-.508a2.823 2.823 0 0 0-1.709-.921.472.472 0 0 0-.249.054ZM343.2 242.535l1.2-.3-1.932-.63c.24.311.486.62.732.93Zm110.61-.8.616.147-.281-.444Zm320.693-.832.449-.107-.429-.2ZM470.669 238.5c-.872.283-1.006 1.127-.267 1.731a2.807 2.807 0 0 0 2.743.438.837.837 0 0 0 .233-1.39 2.753 2.753 0 0 0-2.035-.879 2.2 2.2 0 0 0-.674.1Zm-195.88 1.625c-.038.112.139.3.219.448a10.943 10.943 0 0 0 1.283.094c.1 0 .186-.266.116-.394a1.121 1.121 0 0 0-.533-.37 1.616 1.616 0 0 0-.54-.11.522.522 0 0 0-.544.33Zm4.574-1.269a.559.559 0 0 0 0 .384 1.318 1.318 0 0 0 .5.483 1.627 1.627 0 0 0 .742.242c2.382-.2 4.748-.412 7.1-.657a1.047 1.047 0 0 0 .7-.354c-2.9-.038-5.81-.1-8.692-.1Zm383.354.08c.078.1.359.156.545.229.11-.091.3-.17.287-.283s-.211-.314-.356-.355a1.545 1.545 0 0 0-.395-.067c-.281-.002-.32.167-.08.474Zm16.228-.889c-.214.014-.213.446-.306.688a4.059 4.059 0 0 0 1.211.389c.214-.012.214-.44.306-.685a4.582 4.582 0 0 0-1.174-.393Zm155.523-.98a10.212 10.212 0 0 1-1.286.136 98.431 98.431 0 0 1 10.986.979 2.121 2.121 0 0 0 2.328-.743 3.569 3.569 0 0 1 .632-.824c-.5-.016-.985-.024-1.5-.08a35.173 35.173 0 0 0-3.84-.211 37.556 37.556 0 0 0-7.32.74Zm-68.209.012c-.305.049-.625.094-.652.223-.041.223.378.57.593.863.347-.088.929-.108.969-.287.044-.2-.315-.52-.541-.8Zm-62.053.77.5.294.031-.369Zm37-.827c-.172.055-.371.2-.35.332.07.385.461.6 1.054.657a3.65 3.65 0 0 0 2.633-.873c-.31-.067-.612-.126-.919-.175a409.47 409.47 0 0 1-1.539-.094 3.762 3.762 0 0 0-.877.151Zm-56.545-.4c-.148.079-.266.334-.183.418a2.781 2.781 0 0 0 1.014.715 3.666 3.666 0 0 0 1.45.058c1.087-.157 2.138-.37 3.207-.561a9.252 9.252 0 0 0-3.716-1.062 3.655 3.655 0 0 0-1.771.429Zm71.862.417a1.8 1.8 0 0 0 1.048.706 8.923 8.923 0 0 0 2.022-.015c.165-.013.373-.235.314-.334-.18-.293-.44-.738-.739-.821a13.492 13.492 0 0 0-2.06-.305c-.256.299-.677.53-.583.766Zm-5.118.361a2.679 2.679 0 0 1-.48.3c.1-.011.2-.014.3-.026.368-.047.432-.253.358-.491-.06.067-.111.143-.177.217Zm-6.578-.273a14.322 14.322 0 0 0 1.6.426c-.253-.146-.5-.3-.735-.459-.155-.012-.31-.02-.464-.029Zm28.6-.217c-.6.049-1.231.046-1.853.071a2.689 2.689 0 0 0 1.584.283c.365-.023.527-.177.538-.37-.084.006-.174.006-.263.013Zm87.556 0c1.568.1 3.109-.606 3.154-1.438.009-.117-.124-.248-.221-.378a43.83 43.83 0 0 0-10.014.847c-.56.11-1.113.21-1.683.3 2.553-.213 5.056-.571 8.014.626a1.23 1.23 0 0 0 .481.04h.164l.111.004Zm-34.459-.443c1.125.2 2.226.337 3.33.45a14.035 14.035 0 0 1-3.025-1.052 16.341 16.341 0 0 0-1.889-.791 4.868 4.868 0 0 0-4.37.248c-.483.325-.92.679-1.38 1.017a1.861 1.861 0 0 0 .7.18c1.512-.02 3.011-.219 4.519-.219a12.189 12.189 0 0 1 2.12.169ZM440.66 236.2a1.537 1.537 0 0 0 .537.054c-.049-.128-.036-.307-.143-.368a.79.79 0 0 0-.36-.05h-.178c.041.118.036.296.144.364Zm-335.86-5.79c-.092.208.279.6.515.895a1.144 1.144 0 0 0 .656.058c.468-.163.438-.471-.013-.849a1.444 1.444 0 0 0-.791-.319.362.362 0 0 0-.367.215Zm264.628-2.941c-.444.005-.907.026-1.523.048l-.216.038a9.759 9.759 0 0 0-1.367.664 1.269 1.269 0 0 0-.142 1.9 3.947 3.947 0 0 0 3.454.744 2.238 2.238 0 0 0 1.7-1.885c.127-.751-.8-1.513-1.882-1.513Zm695.887-18.978a2.217 2.217 0 0 0 .657 2.583c.6.139 1.58.516 1.752.373a6.211 6.211 0 0 0 1.625-1.981c.485-.991-.322-1.977-1.643-2.22a4.267 4.267 0 0 0-.773-.08 1.489 1.489 0 0 0-1.62 1.324ZM967.3 196.51l.576-.138-.549-.257Zm-11.391-4.619c-.051.283.481.73.758 1.106.44-.117 1.188-.141 1.241-.37.059-.274-.472-.723-.75-1.1-.445.116-1.208.14-1.247.365Zm-78.667.7.639.376.041-.473Zm47.408-1.058c-.225.072-.48.259-.446.422.081.495.586.778 1.341.844a4.7 4.7 0 0 0 3.38-1.12 13.333 13.333 0 0 0-2.733-.364 5.045 5.045 0 0 0-1.54.217Zm-28.447-.351a.5.5 0 0 0-.352.485.859.859 0 0 0 .437.6 7.511 7.511 0 0 0 4.518.182c.206-.059.231-.33.352-.531-.148-.184-.261-.491-.477-.58a6.125 6.125 0 0 0-2.329-.461 8.614 8.614 0 0 0-2.152.304Zm38.877-.419c-1.962.258-3.87.592-5.8.9a18.188 18.188 0 0 0 8.2.7c.661-.087.748-.531.318-.994a1.806 1.806 0 0 0-.835-.428 9.328 9.328 0 0 0-1.565-.2 2.527 2.527 0 0 0-.316.02Zm9.188.791a2.325 2.325 0 0 0 1.344.9 11.337 11.337 0 0 0 2.593-.017c.213-.017.48-.3.4-.429-.229-.375-.571-.945-.951-1.053a17.891 17.891 0 0 0-2.644-.389c-.315.388-.852.682-.74.986Zm18.887-.367a2.99 2.99 0 0 0 2.431.656c.681-.045 1.037-.383.632-.819a3 3 0 0 0-1.5-.674 3.075 3.075 0 0 0-.388-.025c-.953-.002-1.588.463-1.172.86Zm-853.849-8.12c-.11.264.355.773.667 1.144a1.426 1.426 0 0 0 .833.072c.6-.2.563-.6-.01-1.084a1.841 1.841 0 0 0-1.014-.41.472.472 0 0 0-.473.276Zm788.592-6.12c-2.586.446-5.2.882-6.611 2.471-.205.233.107 1.084.305 1.147a25.808 25.808 0 0 0 11.373 1.132c.251-.038.57-.308.493-.436a3.012 3.012 0 0 0-1.01-1.2 7.18 7.18 0 0 0-1.911-.536c-.65-.143-1.3-.238-1.95-.355.054-.392.13-.778.177-1.174.028-.211.112-.463-.035-.643a1.563 1.563 0 0 0-.8-.408Zm-27.958 3.582c-.222.433.162.61 1 .485.468-.072.948-.12 1.432-.175-.543-.129-1.088-.272-1.625-.362a2.575 2.575 0 0 0-.422-.035c-.183-.002-.35.022-.383.085Zm10.768-.657a1.1 1.1 0 0 0 .459.556 3.806 3.806 0 0 0 1.641.288c.419-.117.571-.553.826-.862a7.576 7.576 0 0 0-1.627-.377h-.048a3.068 3.068 0 0 0-1.249.393Zm-505.39.288c.852-.107 1.73-.185 2.626-.237a3.768 3.768 0 0 0-1.311-.575q-.084-.005-.163-.005c-.715-.002-1.099.331-1.149.815Zm508.647-.841a.694.694 0 0 0-.11.357l.688-.521c-.198.051-.489.056-.576.163Zm-463.009-30.548a79.285 79.285 0 0 0 12.908-.485 36.359 36.359 0 0 1 5.546-.24c.646 0 1.292.007 1.93 0 5.989-.061 12-.085 17.716-.124.653-.345 1.115-.544 1.5-.8.446-.3-1-1.091-2.24-1.193-4.873-.4-9.811-1.023-14.378-.486a20.866 20.866 0 0 1-3.762.059 103.854 103.854 0 0 0-17 .184c-3.7.362-7.648-.22-11.543-.546a1.112 1.112 0 0 0-.874 1.982 4.79 4.79 0 0 0 3.433 1.638c.87-.023 1.746-.032 2.625-.032 1.375 0 2.757.022 4.139.043Zm-76.051-1.923c-.208 0-.471.272-.429.439.125.509.693.837 1.459.837.209 0 .317-.275.466-.426a1.523 1.523 0 0 0-1.487-.851Zm32.564.08a17.989 17.989 0 0 0-4.673.748c2.354-.079 4.676-.216 7.018-.315a1.426 1.426 0 0 0-.483-.233 9.741 9.741 0 0 0-1.744-.2Zm132.557-1.35c-.478.014-1.114.382-1.067.664.056.3.785.722 1.294 1.029a1.466 1.466 0 0 0 .912.169 2.982 2.982 0 0 0 1.085-.683c.071-.076-.3-.408-.478-.627a6.77 6.77 0 0 0-1.721-.552Zm-116.06 1.171a.645.645 0 0 0-.158.315c.977-.071 1.965-.119 2.918-.247a15.834 15.834 0 0 1 3.89.047 2.438 2.438 0 0 0-.846-.582 8.478 8.478 0 0 0-2.878-.567 4.172 4.172 0 0 0-2.927 1.034Zm-6.587-1.656a9.276 9.276 0 0 0-.872.672l.628.392a10.789 10.789 0 0 0 .868-.692c-.217-.129-.585-.373-.621-.373Zm681.054 41.162c-.334-.082-.654-.726-.851-1.117-.054-.12.292-.346.544-.378a8.943 8.943 0 0 1 1.859-.079q.894.071 1.786.137v2.157a44.251 44.251 0 0 1-3.339-.72Z" style="fill:#f37e21;stroke:transparent;stroke-miterlimit:10" transform="translate(-101.27 -133.489)"/></svg>