<svg xmlns="http://www.w3.org/2000/svg" width="16.875" height="15" viewBox="0 0 16.875 15"><g id="Icon_Plane" data-name="Icon Plane" transform="rotate(90 8.438 8.438)"><path id="Icon_awesome-plane" d="M14.062 5.625h-3.348L7.635.236A.469.469 0 0 0 7.228 0H5.309a.469.469 0 0 0-.451.6l1.437 5.025H3.281L2.016 3.937a.469.469 0 0 0-.375-.187H.469a.469.469 0 0 0-.455.582L.937 7.5l-.923 3.168a.469.469 0 0 0 .455.582h1.172a.468.468 0 0 0 .375-.187l1.265-1.688h3.014L4.858 14.4a.469.469 0 0 0 .451.6h1.919a.469.469 0 0 0 .407-.236l3.079-5.389h3.348c1.036 0 2.813-.839 2.813-1.875S15.1 5.625 14.062 5.625Z" data-name="Icon awesome-plane" transform="rotate(-90 8.438 8.438)"/></g></svg>