<svg width="20" height="20" viewBox="0 0 20 20" fill="none" xmlns="http://www.w3.org/2000/svg">
<g clip-path="url(#clip0_2664_15378)">
<path d="M14 10C14 8.42667 13.0933 7.07556 11.7778 6.41778V8.38222L13.9556 10.56C13.9822 10.3822 14 10.1956 14 10ZM16.2222 10C16.2222 10.8356 16.0444 11.6178 15.7422 12.3467L17.0844 13.6889C17.6711 12.5867 18 11.3333 18 10C18 6.19556 15.3422 3.01333 11.7778 2.20444V4.03556C14.3467 4.8 16.2222 7.18222 16.2222 10ZM3.12889 2L2 3.12889L6.20444 7.33333H2V12.6667H5.55556L10 17.1111V11.1289L13.7778 14.9067C13.1822 15.3689 12.5156 15.7333 11.7778 15.9556V17.7867C13.0044 17.5111 14.1156 16.9422 15.0578 16.1778L16.8711 18L18 16.8711L10 8.87111L3.12889 2ZM10 2.88889L8.14222 4.74667L10 6.60444V2.88889Z" fill="#B9B9B9"/>
</g>
<defs>
<clipPath id="clip0_2664_15378">
<rect width="20" height="20" fill="white"/>
</clipPath>
</defs>
</svg>
