<svg xmlns="http://www.w3.org/2000/svg" width="30" height="30" fill="none" viewBox="0 0 30 30"><circle cx="15" cy="15" r="15" fill="#f37e21"/><path fill="#fff" d="m21.28 16.142-5.662 5.536a1.113 1.113 0 0 1-.79.322 1.133 1.133 0 0 1-.79-.322l-5.808-5.68A4.087 4.087 0 0 1 7.3 14.62a4.013 4.013 0 0 1 .087-3.236c.24-.506.581-.958 1.005-1.33 1.629-1.442 4.285-1.305 5.913.294l.525.506.67-.65c.403-.391.882-.7 1.41-.907a4.259 4.259 0 0 1 3.31.08c.518.234.981.57 1.362.985 1.468 1.592 1.335 4.19-.3 5.781Z"/></svg>