<svg xmlns="http://www.w3.org/2000/svg" viewBox="0 0 537.85 195.87"><defs><clipPath id="clip-path" transform="translate(23.64 68.94)"><path id="Rectangle-2" d="M20 0h430a20 20 0 0 1 20 20v132H0V20A20 20 0 0 1 20 0Z" style="fill:none"/></clipPath></defs><g id="Слой_2" data-name="Слой 2"><g id="Trees" style="clip-path:url(#clip-path)"><path id="Path_2520" d="M-23.45 30.38c.88.51 2.14.07 2.72 1.34a6.9 6.9 0 0 0 2.58 2.75 33.25 33.25 0 0 1 3.49 3c1.91 1.88 2.16 4.18 1 8.22-.33 1.19-.71 2.38-1 3.57-.36 1.47.13 3 1 3a32.69 32.69 0 0 0 3.68-.44c2.78-.45 5.6-1.1 8.36-1.34a11 11 0 0 0 4.66-1.22 8.84 8.84 0 0 1 2.8-.86c1.4-.25 2.78-.35 4.16-.52 3.39-.42 7-2.61 10.32-2.66a6.34 6.34 0 0 0 1.88-.64 3.63 3.63 0 0 0 2-2.43A8.62 8.62 0 0 1 25.86 39c.93-1 2.08-.79 2.16.59a12.71 12.71 0 0 1 0 1.38 5.7 5.7 0 0 0 1 4c.87 1.18 1.72 2.38 2.54 3.51.28-.17.45-.2.58-.35 1-1.14 1.78-1.46 2.53-.54s1.51 1.6 2.27 2.39c1.15-1.4 2.31-2 3.48-1.73.82.19 1.61.48 2.42.72 1.82-2.14 3.71-2.78 5.45-2.5a11.94 11.94 0 0 0 5.92-.67 6.89 6.89 0 0 1 3.1 0c1 0 2.08.32 3.21-.71a4.32 4.32 0 0 1 3.67-1.24 30.2 30.2 0 0 0 3.56 0c.46-.4.93-.8 1.34-1.17.9-.94 1.84-1.71 2.78-1.64 1.63.11 3.25.28 4.85.51.25 0 .47.42.56.78a5.46 5.46 0 0 1-.28 3.35 2.17 2.17 0 0 1-.77 1c-.25.11-.6-.12-.7-.42-.24-.72-.31-1.62-.56-2.33-.09-.26-.49-.18-.75-.22a2 2 0 0 0-.18.58c-.16 2.89-.54 3.72-2 4.23a22.56 22.56 0 0 1-3.31 1c-2.8.51-5.61 1.07-8.11.07a1.36 1.36 0 0 0-1.27-.07c-2.27 1.45-4.36.82-6.61 2a3.19 3.19 0 0 1-1.81.11c-.9 0-1.75-.49-2.66-.18-2.4.8-4.6.36-7 1.09a12.58 12.58 0 0 1-5.46.24 5.35 5.35 0 0 1-2.16-.4c-.91-.55-1.88 1-2.76.81a6.33 6.33 0 0 0-4.18 1.09 7.37 7.37 0 0 1-2.32.47 13.62 13.62 0 0 0-1.88.58 3.18 3.18 0 0 0-1.29 2.32v2.74c0 .46-.77 1.61-1.17 1.61-1.38.11-2.74-.27-4.11.39C12.25 64.17 8.73 64 5.05 65.8c-.67.33-1.2 0-1.46-.8s-.54-1.67-1.19-1.42c-2.5 1-4.66-1-7.34 1.62-.13.13-.31.06-.47.1a1.69 1.69 0 0 1-2-1.39 1.09 1.09 0 0 1 0-.26A3.38 3.38 0 0 1-5 61a14.2 14.2 0 0 0 1.84-.21 10.92 10.92 0 0 0 2.3-1.2 3.06 3.06 0 0 0 .39-1.17.41.41 0 0 0-.28-.36 2.1 2.1 0 0 0-.9 0c-3.16.88-6.29 1.59-9.15.72a3.32 3.32 0 0 0-1.84.23c-.79.26-1.59.72-2.38 1s-1.48-.22-2.41 1a13.61 13.61 0 0 0 .65 1.33 4 4 0 0 1 .7 2.87c-.44 3.15.14 5.88-.37 9.06-.19 1.21.41 2.23 1.17 2.09 3.26-.62 6.3.15 9.7-1.23 1.44-.58 2.37.44 2.55 2.28s.36 3.91.53 5.87a3.14 3.14 0 0 1-1.11 2.44 4 4 0 0 1-.94.64 20.24 20.24 0 0 1-6.53 1.26 1.26 1.26 0 0 1-.78-.38 2.72 2.72 0 0 1-.49-.9 2 2 0 0 1 .64-1.85 18.4 18.4 0 0 0 1.87-.71 2 2 0 0 0 .6-1.13c0-.38-.16-1-.36-1a31 31 0 0 0-4.09.18c-.44 0-.94.54-1.41.84a1.82 1.82 0 0 0-.7 1.78c.11.37.29.67.43 1a2.32 2.32 0 0 1-.1 1.93 1.62 1.62 0 0 1-1.3 1 8.72 8.72 0 0 0-1.83.29 1.72 1.72 0 0 0-.76.94c-.1.32 0 1 .18 1.06 2.83.73 5.59 1.71 8.59 1.86q4 .19 8 .46a2.4 2.4 0 0 1 2.3 1.46A2.15 2.15 0 0 0 2 95.8c2.16-.29 4.17.31 6.43-.57 1.39-.55 2.37-.08 3.1 1.27.45.86 1.16.93 2 .17.69-.61 1.32-.69 1.55.24.44 1.77 1.35 1.66 2.61.64.63-.52 1.36-.76 1.77-.22.94 1.23 1.91 2.06 3.54 1.32.55-.25 1.14.19 1.63.51a3.5 3.5 0 0 0 3.05.36 4.9 4.9 0 0 1 2.3-.35c3 .68 6.3.16 9.49.08a11.32 11.32 0 0 1 4 .21 8.31 8.31 0 0 0 4.48.07 27.14 27.14 0 0 1 11.28.09 20.71 20.71 0 0 0 8.15-.09 23.36 23.36 0 0 1 3.24-.43c4.55-.13 9.1-.23 13.64-.26 2.74 0 5.45.09 8.18.1a2.89 2.89 0 0 1 0 .88c-.34 2.46.12 4.59-.28 7.07-.15.94.32 1.74.92 1.63 2.54-.48 4.92.12 7.56-1 1.13-.46 1.85.34 2 1.77s.28 3 .42 4.58a2.45 2.45 0 0 1-.87 1.91 3.26 3.26 0 0 1-.73.5 15.55 15.55 0 0 1-5.1 1 1 1 0 0 1-.61-.29 2.17 2.17 0 0 1-.38-.7 1.52 1.52 0 0 1 .49-1.45 13.07 13.07 0 0 0 1.47-.56 1.6 1.6 0 0 0 .46-.88c0-.29-.12-.75-.28-.75a24.33 24.33 0 0 0-3.19.14c-.34 0-.73.42-1.1.65a1.43 1.43 0 0 0-.54 1.39c.08.29.23.53.33.81a1.79 1.79 0 0 1-.08 1.5 1.24 1.24 0 0 1-1 .81 7.75 7.75 0 0 0-1.43.23 1.43 1.43 0 0 0-.6.73c-.07.25 0 .79.15.83a32.69 32.69 0 0 0 6.7 1.45q3.15.15 6.28.36a1.88 1.88 0 0 1 1.76 1 1.67 1.67 0 0 0 1.75 1c1.69-.23 3.26.25 5-.45a1.76 1.76 0 0 1 2.34.79 1.67 1.67 0 0 1 .08.2c.36.68.91.73 1.6.14.54-.48 1-.54 1.21.18.34 1.39 1 1.3 2 .51.49-.4 1-.6 1.38-.17.72 1 1.49 1.6 2.76 1 .43-.2.9.14 1.28.39a2.69 2.69 0 0 0 2.37.28 3.83 3.83 0 0 1 1.8-.27c2.37.52 4.92.13 7.41.07a8.74 8.74 0 0 1 3.14.16 6.37 6.37 0 0 0 3.49 0 21.27 21.27 0 0 1 8.81.07 16.21 16.21 0 0 0 6.36-.06 17.9 17.9 0 0 1 2.53-.35c3.55-.09 7.1-.17 10.65-.19 2.35 0 4.69.1 7.05.08a11.13 11.13 0 0 0 3.59-.34 7.85 7.85 0 0 1 4.91 0 5 5 0 0 0 3.14.12 6.69 6.69 0 0 1 4.22 0c.94.28 1.89-.15 2.86-1.26a5.87 5.87 0 0 1 .7-.71c.66-.54 1.22-.52 1.65 0 .24.3.45.65.69.94a1.15 1.15 0 0 0 1.57.42 1.12 1.12 0 0 0 .4-.38c1.1-1.16 2.11-1.78 3.16-1.21.37.2.94-.07 1.42-.16s1-.4 1.45-.33c3 .51 6.14-.16 9.15 0A21.59 21.59 0 0 0 220 123a3.41 3.41 0 0 0 2.17-1.41c.53-.65 1-1.6 1.8-1.57.35.85.7 1.81 1.14 2.67a1.22 1.22 0 0 0 .82.63c.49.08.93-.5 1.33-1.11 1-.21 2-.47 2.9-.77a1.7 1.7 0 0 1 2.23.51c1 1.31 2.43 1.22 3.8 1.32.68 0 1.57-.9 1.94-2 .32-.9.54-1.86.91-2.73a2.46 2.46 0 0 1 1.33-1.36c.5-.23 1 .33.81 1.06s-.41 1.48-.59 2.22.11 1.28.69 1.22a2.94 2.94 0 0 0 .69-.28 1.85 1.85 0 0 0 1.34-1.91c.05-.56.13-1.12.23-1.67s.68-1 1-.83a2 2 0 0 1 .53.47c.54.69 1.14.76 1.94-.29a7.22 7.22 0 0 1 1-1.12c.49-.46 1-.59 1.41-.33a18.48 18.48 0 0 1 1.46 1.19 12.41 12.41 0 0 1 2.1-1.48 14.68 14.68 0 0 1 2.55-.56c.48-.12 1-.34 1.47-.49 1.73-.55 3.45-1.15 5.17-1.61a3.24 3.24 0 0 1 1.72.13 1.82 1.82 0 0 0 1.76-.35 5.06 5.06 0 0 1 1.83-.87c2-.54 3.93-1 5.88-1.47a23.42 23.42 0 0 1 8.25-.74 18.65 18.65 0 0 0 5-.08c1.68-.19 3.43-.88 4.91 0 .46.27 1.19-.14 1.78-.15a5.86 5.86 0 0 1 2.43.08c1.13.49 2.53.37 3.14 2.09.16.43 1.07 0 1.36-.54s.68-1.36 1-2a17 17 0 0 1 1.14-1.87c.14-.2.56-.26.63-.1.22.52.31 1.18.49 1.76.22.74.7 1.1 1 .83a2.35 2.35 0 0 0 .68-1.45 5.78 5.78 0 0 1 .12-.57c.27-.84.75-1.4 1.23-1.26a4.93 4.93 0 0 1 1.17.69 4.48 4.48 0 0 1 2.72-2.36c2.06-.43 4.11-.77 6.15-1a6 6 0 0 1 2.06.19 1.29 1.29 0 0 1 .95 1.12 13.74 13.74 0 0 0 .32 1.92c.27.65.6 1.41 1.08 1.58a14.68 14.68 0 0 0 7.27.31c1.15-.89 2.13-.3 3.28-.72.24-.73.47-1.45.74-2.17.18-.49.79-.89 1-.63.37.53.72 1.09 1.06 1.64 1.36 2.19 3.09 3.18 5.59 1.36a3 3 0 0 1 3.17-.55 1.32 1.32 0 0 0 .34 0c.43 0 1-.65 1.15-1.49s.24-1.49.4-2.24.65-1.29 1.22-1.27a12.65 12.65 0 0 1 1.35.22h-.07a16.91 16.91 0 0 1 2.19-.6c1.08-.15 2.14-.12 3.22-.23a3 3 0 0 0 2.19-1.08c1.63-2 3-2.28 4.46-1.42a26.07 26.07 0 0 0 2.57.9 3.62 3.62 0 0 0 3.84-.43c2-1.36 3.9-1.5 5.46-.14a13.06 13.06 0 0 0 2 1.23c.27-.43.54-.85.8-1.29.36-.62.74-1.26 1.26-1.23s1.15 1 1.1 1.93a2.34 2.34 0 0 1-.34 1c-.39.54-.83 1-1.26 1.48.35 1.21.86 2.08 2 1.9a5.18 5.18 0 0 1 3.4.42 1.09 1.09 0 0 0 1.07-.31c1.78-1.61 3.43-2.15 4.9-1.08a1.1 1.1 0 0 0 1.39-.1 2.66 2.66 0 0 1 3.39 0 16.62 16.62 0 0 1 2.69 2.19 11.35 11.35 0 0 1 3-1c3.18 0 6.54-1.06 9.68-.81a2.89 2.89 0 0 0 1.81-.43 11.48 11.48 0 0 1 4.41-1.49c2.56-.56 5-.36 7.62-1.28a6.85 6.85 0 0 1 2.85-.15 7.35 7.35 0 0 0 2.87-.33c1-.32 1.94-.4 2.92-.62a4.82 4.82 0 0 0 1.1-.52.77.77 0 0 0 .29-.4c0-.32.08-.79 0-.9-.34-.35-.8-.48-1.14-.83-1-1-2.21-1.16-3.7 0a1.54 1.54 0 0 1-1.77.25c-1-.61-2.22-.5-3.32-.76-.08 0-.17-.3-.13-.38.12-.32.3-.78.46-.86a4.34 4.34 0 0 1 1.83-.69 13.86 13.86 0 0 0 5.11-1.13 12 12 0 0 1 4-.88 31.91 31.91 0 0 1 5.84.7 5 5 0 0 0 3.21-.46 20.36 20.36 0 0 1 3-1c1.11-.34 2.21-.73 3.31-1 1.48-.39 2.66-1.6 3.65-3.69.69-1.46 1.51-1.7 2.34-1.3a2 2 0 0 0 1.31.31c2-.43 3.85-.37 5.87-1.7a9.66 9.66 0 0 1 1.49-.71A1.1 1.1 0 0 1 463 84c1.31 1.23 2.89 1.33 4.71.44.37-.18.74-.16 1.1-.3a1.37 1.37 0 0 1 1.86.5 1.24 1.24 0 0 1 .17.5c.36 1.14 1 1.52 2 .9a2.67 2.67 0 0 0 .95-1.1.92.92 0 0 0-.26-1.23 1.91 1.91 0 0 1-.82-1.87c0-.9 0-1.77-.05-2.65 0-1.36-.06-1.51 1-2.13a3.47 3.47 0 0 0 1.61-3.06c.1-.93.16-1.85.21-2.76s-.33-1.66-1-1.52c-1.1.25-2.22.59-3.14 0a1.46 1.46 0 0 1-.63-.94 1.54 1.54 0 0 1 .64-1.4c1.26-1 1.75-2.7 2.17-4.4a2.83 2.83 0 0 0-.18-2 1.84 1.84 0 0 0-1.31-1.21c-.56-.09-1.14-.13-1.7-.22a.36.36 0 0 1-.18-.34 2.5 2.5 0 0 1 .35-.94c1.05-.84 2.25-1 3.11-2.81a.84.84 0 0 1 .71-.39 6.47 6.47 0 0 0 3.12.11c.43-.13.8.42 1.17.72a1.82 1.82 0 0 1 .14 1.88c-.48 1.26-1 2.51-1.44 3.78-.08.24 0 .79.17.85.85.31 1.74.52 2.62.75a.6.6 0 0 0 .35 0c.85-.29 1.36-1.36 1.89-2.36a1.78 1.78 0 0 0-.08-1.87 14.12 14.12 0 0 1-1-1.7c-.64-1.44-.14-4 1-5.61a7 7 0 0 1 1.3-1.62c1.09-.67 1.12-2.32 1.84-3.32 1-.72 1.94-1.43 2.9-2.21a5.13 5.13 0 0 0 1.73-2.66 4.16 4.16 0 0 1 1.8-2.46 5 5 0 0 0 2.06-4.2 9.91 9.91 0 0 1 .82-3.87 17.79 17.79 0 0 0 1-2.72 28.78 28.78 0 0 0 .51-2.92c.59-.45 1.2-.88 1.79-1.37a9.63 9.63 0 0 0 2.22-2.92c.8-1.48.85-3 .13-3.86l-.49-.57c-.79-.94-1.39-.77-2 1-.17.51-.37 1-.57 1.52a6.15 6.15 0 0 1 .27-4.14 11.54 11.54 0 0 0 .82-3.32 10.32 10.32 0 0 1 2.41-5.61 12.86 12.86 0 0 1 2.34-2.65c1.61-1 2.1-3.28 3.14-4.89a1.32 1.32 0 0 0 0-.92c-.44-.35-.49-.95-.35-1.76a1.14 1.14 0 0 0 0-.52c-.11-.24-.25-.57-.43-.58a1 1 0 0 0-.67.54c-.75 1.27-1 2.94-1.92 4.12-1.51 1.92-3 3.89-4.5 5.84-.32.42-.8.38-.89-.1s-.14-1-.23-1.45c-.19-1-.6-1.26-1.3-.63A15.79 15.79 0 0 1 494.22 5a2.36 2.36 0 0 1-1.41.2c-.55 0-.63-.69-.7-1.39a7 7 0 0 0-.24-1.44c-.08-.27-.28-.55-.47-.53-.59.08-1.27.54-1.81.44-1.11-.2-1.89.78-2.69 2.15-.34.59-.64 1.39-1.22 1.46a1.2 1.2 0 0 1-.12-.42c0-.71.1-1.49-.37-1.76a1.14 1.14 0 0 0-1.4.22 1.62 1.62 0 0 0-.36.92 1.43 1.43 0 0 0 .32.76 1.21 1.21 0 0 1 0 1.36 1.46 1.46 0 0 1-.68.62 15.16 15.16 0 0 1-1.45.45 9.33 9.33 0 0 1 1.68-4.52 8.49 8.49 0 0 1 1.7-2.1c1.4-.86 1.44-3 2.36-4.26 1.22-.93 2.47-1.83 3.71-2.83a6.58 6.58 0 0 0 2.22-3.41 5.37 5.37 0 0 1 2.3-3.16 6.39 6.39 0 0 0 2.65-5.37 12.51 12.51 0 0 1 1-5 24.94 24.94 0 0 0 1.3-3.47c.27-1.24.49-2.49.65-3.74.76-.59 1.53-1.14 2.28-1.76a12.63 12.63 0 0 0 2.86-3.75c1-1.89 1.08-3.8.16-4.93-.2-.26-.42-.49-.62-.74-1-1.2-1.79-1-2.58 1.32-.22.66-.48 1.3-.72 1.95a7.8 7.8 0 0 1 .33-5.3 14.64 14.64 0 0 0 1.1-4.23 13.35 13.35 0 0 1 3.09-7.19c1-1.2 2-2.76 3-3.39 2.06-1.25 2.68-4.2 4-6.26a1.71 1.71 0 0 0 0-1.18c-.57-.45-.63-1.22-.45-2.26a1.52 1.52 0 0 0 0-.67c-.15-.31-.32-.72-.56-.73s-.65.33-.85.68c-1 1.64-1.27 3.77-2.45 5.28-2 2.46-3.85 5-5.78 7.49-.41.54-1 .48-1.15-.13s-.17-1.25-.28-1.87c-.25-1.34-.77-1.6-1.67-.8a20.81 20.81 0 0 1-2.27 2 3.09 3.09 0 0 1-1.82.26c-.7 0-.81-.89-.9-1.78a9 9 0 0 0-.29-1.85c-.11-.34-.37-.7-.62-.67-.76.1-1.63.68-2.32.55-1.41-.25-2.42 1-3.45 2.76-.44.76-.82 1.78-1.56 1.87a1.63 1.63 0 0 1-.16-.53c0-.92.14-1.92-.47-2.25a1.45 1.45 0 0 0-1.79.28 2.16 2.16 0 0 0-.47 1.16 2 2 0 0 0 .41 1 1.55 1.55 0 0 1 .06 1.75 1.93 1.93 0 0 1-.87.8c-4.93 1.77-9.51 1.11-14.35 2.19a.62.62 0 0 1-.42-.1c-1.37-.73-2.93-.25-4.54.51a5.45 5.45 0 0 1-1.89.76c-3.15 0-6.49.78-9.47 0-1.16-.3-2.39-.69-3.59.26-2 1.57-3.75 1.42-5.56 1.49a10 10 0 0 0-4.64 1.09c-.39.21-.67-.62-.53-1.39.09-.48.15-1 .27-1.44a38.66 38.66 0 0 0 1.42-12c-1.11 1.35-2 1.76-2.64.13-.31-.79-1.2-.28-1.52.66a39.46 39.46 0 0 0-2.57 10.69 1.08 1.08 0 0 1-.35.56c-.27-.06-.65-.1-.7-.39-.2-1-.25-2.12-.39-3.16 0-.18-.17-.39-.28-.36a1.3 1.3 0 0 0-.85.49 15.16 15.16 0 0 0-1.17 2.64 6.31 6.31 0 0 1-2.22 3.31 5.55 5.55 0 0 1-2.82 1.35 30.43 30.43 0 0 1-5 .05 15.71 15.71 0 0 0-5 .19 53 53 0 0 1-10.58 1.13 13.38 13.38 0 0 0-3.71.65 39.3 39.3 0 0 1-9.78 2 1.42 1.42 0 0 0-.89.58 2.79 2.79 0 0 0-.49 1.27 1.75 1.75 0 0 0 .37 1c.3.39.69.62 1 1a1.55 1.55 0 0 1 .21 1.74 4.49 4.49 0 0 1-1.24 1.4c-1.42.71-2.85 1.12-4.26 1.89a5.12 5.12 0 0 1-3.68.71 3.46 3.46 0 0 0-3.23 1.22c-1.48 1.46-2.4.73-3.17-.49-.45.35-.76.25-.9-.26-.58.66-1.17 1.27-1.73 2-1.11 1.4-2.15 1.59-3.14 1.12-.39-.18-.65-.7-1-.9s-.88.18-1.26.92-.65 1.16-1 1.74c-1.37-.36-2.64-.68-3.9-1-.81-.23-1.12-1.07-.82-2.47.35-1.69 0-2.69-.81-3.25-.4-.27-1 .24-1.09 1.06-.08.48-.06 1-.14 1.42-.21 1.37-.56 1.81-1.36 1.71a5.13 5.13 0 0 1-1.67-.46c-.18-.1-.19-.7-.21-1.11a1.78 1.78 0 0 1 .23-.67c.24-.42.5-.8.74-1.2a2.61 2.61 0 0 0 .51-2c-.14-.59-1-.65-1.64 0-.89.89-1.74 1.89-2.63 2.77-.27.26-.69.44-.91.33-1.31-.65-2.58-1.39-3.84-2.14a.7.7 0 0 1-.11-.58 4 4 0 0 1 .47-1.29 4.78 4.78 0 0 1 2.77-1.83 14.23 14.23 0 0 1 2.44-.16c-.18-.86-.26-1.45-.41-2-.64-2.24-1.85-3.16-3.67-3.18a109.07 109.07 0 0 0-17.48 1.71 10.35 10.35 0 0 0-2.83.83 6.59 6.59 0 0 1-4.54.4 22 22 0 0 0-10.68-.2c-2.32.58-4.77 1.1-6.68-.21a5.73 5.73 0 0 0-5.23-.47 2.74 2.74 0 0 1-2.85-.77c-1.12 1-2.21 1.44-3.24 1.12a16.28 16.28 0 0 0-6.06-1.07 4.76 4.76 0 0 1-2.12-.54 13.56 13.56 0 0 0-6.59-.75c-1.84.16-3.68.39-5.52.53s-3.35.12-4.61-1.2c-.5-.53-1.2.2-1.78.23-.12 0-.26-.18-.28-.35a1.35 1.35 0 0 1 .12-.69 7.16 7.16 0 0 1 2.48-3c.78-.51 1.58-.8 2.36-1.29a1.1 1.1 0 0 0 .4-1.17c0-.18-.14-.4-.26-.41-2.95-.28-5.84-.9-8.88-.67-2.39.19-4.43-.13-5.93-2.33-.08-.13-.25-.13-.38-.22a1.5 1.5 0 0 0-1.76 0c-.79.49-1.58 1-2.37 1.48s-1.63.72-2.26.24c-1.13-.9-2.5-.75-3.93-.34-2.21.65-4.7 0-7 .19-2.76.17-5.45-.1-8.16.46a22.49 22.49 0 0 0-2.45.77 63.21 63.21 0 0 1-13.68 2.08c-2.59.17-5.31.86-7.8.62-4.91-.48-10.12 1-15.16 1.38a4.07 4.07 0 0 0-1.87.68 10 10 0 0 1-5.16 1.44c-4 .32-8 .67-12 1a79.41 79.41 0 0 1-8.72.68 73.2 73.2 0 0 0-9.59.52 22.82 22.82 0 0 1-3.2.2 51.9 51.9 0 0 0-11.47.9 36.19 36.19 0 0 1-7.78.57 10.49 10.49 0 0 0-5.05.68 6.78 6.78 0 0 1-2.34.51c-3.65.21-7.23 0-11.07 1.45a4 4 0 0 1-1.37.12c-2.87.09-5.62-.56-8.73 1.07a.67.67 0 0 1-.46.07c-3.13-.89-6.58-.11-10 .25a.65.65 0 0 1-.43-.07 2.9 2.9 0 0 0-3-.19c-1.3.65-2.36-.39-3.63.68-.24-.2-.44-.58-.71-.56-2.75.17-5.5.42-8.26.64-1.68.13-3.38.28-5 .33a3.61 3.61 0 0 1-2.17-.33c-1.4-1-3.13-.66-4.68-1-2.79-.64-5.74.09-8.73.86-1.09.28-2.21.72-3.3.89-3.58.59-7.14 1.09-10.71 1.63a61.85 61.85 0 0 0-9.91 2.81C31.48-28.9 26.4-27 21.51-27a14.37 14.37 0 0 0-2.81.67c-3.12.72-6.27 1.64-8.83-.26a1.75 1.75 0 0 0-.87-.26c-1.25-.19-2.5.51-3.69 2a15.76 15.76 0 0 0-1.56 2.3c-.82 1.46-1.58 3-2.35 4.51-.85 1.7-1.87 2.55-3 2.72a3.48 3.48 0 0 1-.91 0c-2-.25-3.73 1.37-5.46 3.58-.63.81-.89 2.58-.38 3.21a21 21 0 0 1 1.92 2.07A33.48 33.48 0 0 1-4.86-3c.07.16.23.19.36.28.35.26.89.34 1 .82.31.9-.45 1.76-.84 2.6A10.06 10.06 0 0 0-5 4.26a5.53 5.53 0 0 1-1.32 3.28C-7 8.36-7.8 9.11-8.5 10a14.79 14.79 0 0 0-2.71 5c-.73 2.32-1.73 4.56-2.61 6.84.6-.11 1.21-.23 1.8-.3.12 0 .3.22.27.33-.1.43-.26 1.14-.42 1.23-2.84 1.54-5.69 3-8.53 4.47-.79.4-1.58.72-2.36 1.19a3.1 3.1 0 0 0-.57 1.15.6.6 0 0 0 .18.47ZM1 84.57c-.29.18-.75.61-.84.48a6.81 6.81 0 0 1-.83-1.92A2.09 2.09 0 0 1 0 80.79c.68-.34 1 0 1.19 1.14A4.14 4.14 0 0 1 1 84.57ZM48 64.5l.26-.29v.4Zm2.19-5.5a1.09 1.09 0 0 1-1.16.79c-.33 0-.51-.32-.32-.79a1.56 1.56 0 0 1 .71-.77.58.58 0 0 1 .77.26.57.57 0 0 1 0 .51Zm3.19 1.49c-.22-.09-.58-.08-.61-.31A3.88 3.88 0 0 1 53.1 59c.22.09.59.08.62.3a4.29 4.29 0 0 1-.34 1.16Zm5.33-1.13a2.65 2.65 0 0 1-1.25.12c-.1 0-.24-.29-.21-.42a2.87 2.87 0 0 1 .44-1.06 4.77 4.77 0 0 1 1.31-.59c.16.38.43.65.38 1a1.77 1.77 0 0 1-.62 1Zm3.94-.52c-.32-.06-.38-.5-.18-1a1 1 0 0 1 .39-.48 1.75 1.75 0 0 1 .91-.29c1 .16 1.89.4 2.83.61a4.75 4.75 0 0 1-3.95 1.14Zm5.79-.2c-.78.23-1.21-.39-1.67-1 .72-.4 1.44-.71 2.07-.37a.47.47 0 0 1 .22.4.91.91 0 0 1-.63.92ZM490 27a2.17 2.17 0 0 1 2 1.8 3.16 3.16 0 0 0-1.69 1.2c-1.43 1.78-1.44 1.72-1.42-.49 0-.34-.11-.62-.12-1-.02-.91.56-1.66 1.23-1.51Zm3.21-55a2.78 2.78 0 0 1 2.55 2.3 4 4 0 0 0-2.12 1.56c-1.83 2.28-1.85 2.21-1.83-.62 0-.44-.14-.8-.15-1.23 0-1.25.72-2.2 1.55-2ZM80.78-13.6l.64.25a.39.39 0 0 1-.64-.24Zm1.79 70.14a1.94 1.94 0 0 1-2.18.42c-.09-.05-.12-.32-.18-.52a1.94 1.94 0 0 1 .22-.61 1.76 1.76 0 0 1 2.16-.39.6.6 0 0 1 .18.47 1.1 1.1 0 0 1-.2.63Zm2-12.09c-1.88 1.43-3.71 2.1-5.47 1.75a.44.44 0 0 1-.25-.42 3.8 3.8 0 0 1 .45-1.26 2.7 2.7 0 0 1 .92-.65c.31-.18.62-.31.93-.46L81 42.23a1.58 1.58 0 0 1 0-.65c.06-.19.3-.48.39-.46 1.26.32 2.54.62 3.26 2.15a2.15 2.15 0 0 1-.12 1.18Zm6.9 11.35.33.06-.3.41Zm2.38-12.1q.38-.24.78-.45c.14-.06.36-.1.4 0 .11.43-.07.63-.48.55-.22-.05-.46-.07-.69-.1Zm30.62-60.43c0 .56.13 1.16-.48 1.57a1.13 1.13 0 0 1 0-.48c.16-.37.35-.72.54-1.08Zm4.24-1.42v.65a1.4 1.4 0 0 1-.05-.41 1.55 1.55 0 0 1 .05-.23ZM157 93.9a4.87 4.87 0 0 1-.76.52c.12-.16.23-.33.34-.5l.23-.06ZM89.59 43.76c-.25.2-.6.47-.78.38s-.29-.53-.43-.83a2.71 2.71 0 0 1 .78-.47c.24 0 .45.18.64.34a1.56 1.56 0 0 1-.21.58Zm-1.66-1.11c.09 0 .24 0 .28.14a1 1 0 0 1 .06.35Zm13.23 57.12c-.11.09-.24 0-.37.08a1.33 1.33 0 0 1-1.54-1.08 1.5 1.5 0 0 1 0-.2 1.12 1.12 0 0 1 .1-.4 10.27 10.27 0 0 1 4.86.33l.83.22c-1.25-.09-2.47-.32-3.87 1Zm4.61 15.12c-.22.14-.58.47-.65.37a5.16 5.16 0 0 1-.66-1.5 1.62 1.62 0 0 1 .58-1.82c.53-.27.81 0 .93.88a3.21 3.21 0 0 1-.21 2.07Zm3.2-14.65c-.53.25-.94 0-1.15-.63a4.61 4.61 0 0 0-.32-.8 4.65 4.65 0 0 0 .72-.16 8.56 8.56 0 0 1 5.41-.05 2.25 2.25 0 0 0 .63.06 25.06 25.06 0 0 0-5.3 1.58Zm11.7-3c-1.07.09-2.14-.21-3.21.3a11.55 11.55 0 0 1-1.6.63A5.8 5.8 0 0 0 117.3 97a6.88 6.88 0 0 1 .89-.9c.85-.7 1.56-.67 2.12 0 .24.3.47.64.7 1a.7.7 0 0 1-.35.23Zm21.86 2 .2-.22v.31Zm.77-3.67c-.17 0-.26-.16-.27-.35h1.04a.85.85 0 0 1-.77.37Zm3.4.54c-.17-.07-.46-.06-.48-.24a2.78 2.78 0 0 1 .24-.84h.18c.15 0 .31.07.32.19a2.9 2.9 0 0 1-.27.91Zm4.16-.88a2.33 2.33 0 0 1-1 .09c-.08 0-.19-.22-.16-.32a2.11 2.11 0 0 1 .34-.87 3.6 3.6 0 0 1 1-.42c.13.29.34.5.3.75a1.41 1.41 0 0 1-.5.77Zm2.88-.89.09.21a1.55 1.55 0 0 0 .24.27h-.15c-.18 0-.22-.24-.19-.48Zm4.7.33c-.61.17-.94-.31-1.29-.75a4.51 4.51 0 0 1 .44-.22l.74-.18a.92.92 0 0 1 .43.11.38.38 0 0 1 .18.32.72.72 0 0 1-.5.72Zm18-1.84v-.38h.26Zm9.29-1.42a.92.92 0 0 1-.7.14c-.53-.11-1-.27-1.57-.4.92-1 1.82-1.74 2.64-.93a.55.55 0 0 1 .1.41 2.32 2.32 0 0 1-.48.78Zm2.76 1.09c-.1 0-.11-.44-.16-.68.19-.17.41-.46.57-.46s.12.44.17.68c-.21.17-.43.46-.59.46Zm8.29-1.1c0 .1-.17.18-.26.26-.06-.09-.15-.16-.15-.27a.69.69 0 0 1 .17-.38c.28-.2.38 0 .23.39ZM217 120.23c-.06-.1-.17-.17-.16-.28s.14-.25.22-.37c.06.09.17.16.16.27s-.15.25-.23.38Zm4 .27a6.08 6.08 0 0 1-.49.62c-.22-.11-.28-.39-.09-.7s.37-.24.56-.31a.86.86 0 0 1 0 .39Zm2-25.9c0-.08-.13-.15-.13-.25s.12-.22.19-.33c.05.09.14.16.13.26s-.12.22-.19.32Zm4.12 27.24a1 1 0 0 1 .05.16l-.21-.28c.05 0 .12.06.16.12Zm112.8-57a2.26 2.26 0 0 1 .11 1.92c-.28.74-1.12 1.22-1.65.94a2.2 2.2 0 0 1-.87-1.82c-.08-.76.36-1.59.89-1.63h.84a4.3 4.3 0 0 1 .69.57Zm-6.85-48.26c.25-.32.44-.61.62-.65.39-.1.61.23.66.75a11 11 0 0 0-1.28-.1ZM462.42 5.71c.29-.5.62-.65.72-.21a3.07 3.07 0 0 1-.3 1.19.39.39 0 0 1-.4.12c-.29-.18-.28-.58 0-1.1Zm8.25-8.42c-.69 1.45-1.36 2-2 1.43a7.87 7.87 0 0 1-.85-.88c-.83-.3-1.5-.56-2.19-.8-.4-.13-.85-.14-.91-.94 0-.53.76-1.18 1.69-1.31 1.23-.17 2.45-.32 3.66-.4s1.35 1.36.61 2.9Zm-4.7 56c.22-.39.48-.5.55-.17a2.35 2.35 0 0 1-.22.94.34.34 0 0 1-.32.09c-.23-.1-.22-.41.02-.82Zm2-7.94a2.27 2.27 0 0 1 .69 1.1c0 .07.06.11.08.17l-.26-.09c-.31-.11-.67-.11-.71-.74a.69.69 0 0 1 .23-.4Zm-212.4 46.29c-.09.15-.18.4-.27.45a5.8 5.8 0 0 1-1.47.69c-2.19.36-4.35.62-6.52 1a11.81 11.81 0 0 0-2.93.64c-1.92.82-3.58.39-5.3.23-.2 0-.4-.28-.47-.54a2.8 2.8 0 0 1 0-1 .94.94 0 0 1 .27-.46 2.33 2.33 0 0 1 .72-.48c.37-.14.73-.12 1.1-.26 1.22-.48 2.46-1.1 3.69-1.5s2.18-.42 3.28-.71a2.75 2.75 0 0 1 2.09 0c1.27.71 2.76.1 4.2-.2s1.69-.06 1.72 1.64a2.2 2.2 0 0 1-.11.5Zm9.9-1.38a1.45 1.45 0 0 1-.7.49c-2 .37-4 .71-6.06 1a1.25 1.25 0 0 1-.92-.37c-.16-.14-.19-.53-.27-.81.17-.3.36-.84.49-.87q3.42-.76 6.81-1.39a1.29 1.29 0 0 1 .95.27 1 1 0 0 1 .2.8 2.14 2.14 0 0 1-.5.89Zm18.82-2.49c-.44.26-.91.57-1.37.81s-.73.11-.77-.45a3.43 3.43 0 0 1 .15-1.56c.75-1.44 1.58-2.81 2.4-4.19 0-.08.23-.07.31 0a.59.59 0 0 1 .18.35 1.46 1.46 0 0 1 0 .51c-.29 1.45-.58 2.9-.9 4.55Zm5.58-5.28c-.34.66-.92.92-1.32.59a1.37 1.37 0 0 1-.14-1.39c.27-.76.85-1.18 1.29-.94s.51 1.09.17 1.74Zm1.91 2.17c-.24.35-.49.32-.59 0a1.75 1.75 0 0 1 0-.51c.26-.67.75-1.19.93-1a.61.61 0 0 1 .06.46 3.85 3.85 0 0 1-.42 1Zm5.86-1.34.13-.46.17.28Zm6.52-6.48c-.06.07-.17 0-.26.08a1.21 1.21 0 0 1 .06-.38c.06-.08.17-.06.26-.09a1.21 1.21 0 0 1-.06.38ZM340 83.15a.59.59 0 0 1-.31.33c-.39.08-.68-.09-.79-.6a2.32 2.32 0 0 1 .07-.52c.23-.12.5-.39.67-.34a.82.82 0 0 1 .39 1.08v.05Zm3.18 20.13c.07 0 .18 0 .21.12a.77.77 0 0 1 0 .25c-.09-.12-.17-.25-.25-.37Zm.2 1a2.17 2.17 0 0 1 .07-.24v.6a1.49 1.49 0 0 1-.05-.36Zm7.47-26.45.92-.74-.33 1-.59-.24Zm31.16-6c-.1.14-.25.3-.35.29-1.16-.08-2.31-.17-3.45-.29a.47.47 0 0 1-.35-.32c1.46-.2 2.93-.43 4.38-.58a1.27 1.27 0 0 1 0 .39 1.38 1.38 0 0 1-.23.51Zm.16 27.25a4.26 4.26 0 0 1-1 .25c-.19 0-.29-.35-.43-.54.21-.22.46-.6.63-.6a1.9 1.9 0 0 1 .92.33 2.72 2.72 0 0 1-.09.56Zm2.22-26.64a2.72 2.72 0 0 1-.62.17c-.05 0-.1-.26-.07-.39a.91.91 0 0 1 .25-.41c.26-.23.46-.17.53.17a1.46 1.46 0 0 1-.1.46Zm1.49 27.12c-.42 0-.68-.81-.55-1.48a2.34 2.34 0 0 1 .2-.58c.55-.86 1.56-1.17 2-.6a.69.69 0 0 1 .07.47c-.21 1.16-1.07 2.25-1.71 2.18Zm28.51-1.16a.27.27 0 0 1-.32.08c-.22-.18-.21-.53 0-.9.06-.1.22-.07.34-.09a.75.75 0 0 1 0 .9Zm50.95-32.17a3 3 0 0 1-1.56 2 31.63 31.63 0 0 0-5.55 2.29c-.75.37-1.53-.81-1.48-2a5.07 5.07 0 0 1 .13-.56 4.44 4.44 0 0 1 .59-.89c.47-.41 1-.69 1.46-1.06a1.69 1.69 0 0 0 .53-1.48c-.13-.63-.31-1.21-.45-1.83a2 2 0 0 1 .41-1.54c1.32-.95 2.58-2.32 4-2.27.79 0 1.72-.65 2.57-.91a1.22 1.22 0 0 1 1.58.52 2.06 2.06 0 0 1 .2 1.36c-.37 1.07-1 2-1.37 3.12s-.66 2.23-1.06 3.32Zm3.23 2.57c-.65 1-1.52 1.34-1.93.69-.11-.17 0-.64 0-1a4.78 4.78 0 0 1 .57-.84 1.1 1.1 0 0 1 1.36-.21c.27.16.3.93 0 1.34Zm3.8-22.07c-.55 1.13-1.07 1.51-1.57 1.11l-.06-.05a2.25 2.25 0 0 0 .45-.19 3.62 3.62 0 0 0 1.22-1.41 1.19 1.19 0 0 0-.34-1.58 1.07 1.07 0 0 1-.16-.14c.8 0 1 1.06.45 2.25Zm-.49-37.49h-.15a5.32 5.32 0 0 0 .49-.83 1 1 0 0 1 .9-.5 8.34 8.34 0 0 0 4 .13c.37-.11.71.2 1 .52a47.5 47.5 0 0 0-6.29.72Zm-66.03-47.4v.46l-.23-.12Zm-57.62 19.5c.1 0 .23.25.21.42 0 .53-.31.89-.68.93-.1 0-.16-.26-.24-.41.1-.54.35-.9.71-.94Zm-5.57-15.66c.14 0 .31-.15.39-.07a.67.67 0 0 1 .05.52c-.25.59-.49.64-.61.13a2.28 2.28 0 0 1 .17-.58Zm-10.19 17.47a4.51 4.51 0 0 1 2.28.51c-1.14 0-2.27 0-3.41.05a.82.82 0 0 1 .23-.26 2.4 2.4 0 0 1 .9-.3Zm-4.84-1.33a5.47 5.47 0 0 1 .44.63l-.29.43c-.16-.21-.3-.43-.44-.65a3.13 3.13 0 0 1 .29-.41Zm-3.14 2a1.09 1.09 0 0 1 .08.31 11.14 11.14 0 0 1-1.41-.1 3.82 3.82 0 0 0-1.89.26 2 2 0 0 1 .4-.64c1.16-1 2.16-1 2.81.17Zm-31.16 2.59c2.35-.67 4.72-1.56 6.95-1.26a4.85 4.85 0 0 0 1.82-.15 24.52 24.52 0 0 1 8.23-.71c1.8.17 3.69-.63 5.57-1.17.59-.17.86 1 .47 2s-1 1.81-1.62 1.84c-3.17.17-6.49 1.19-9.53.56a13.3 13.3 0 0 0-3.62.16c-2.9.25-5.81.55-8.58.81a8.5 8.5 0 0 1-.74-.73c-.23-.27.45-1.15 1.05-1.32Zm-25.86 3c.28-.23.59-.63.84-.65a.65.65 0 0 1 .53.62 2.93 2.93 0 0 1-.6 1.11c-.11.15-.34.28-.44.22a1.64 1.64 0 0 1-.54-.63c-.05-.08.13-.43.2-.67Zm-7.66-31.81c.1-.35.55-1 .68-.92 2.2.68 4.75-.28 7 .13a.45.45 0 0 1 .2.42 3.14 3.14 0 0 1-.45 1.25c-1.2.92-2.42 1.73-3.63 2.57-1.3-.76-2.55-1.44-3.75-2.24-.16-.1-.16-.81-.05-1.21Zm-19.35 1.62c.54-1.26 1.49-2 2.08-1.45a4.83 4.83 0 0 1 1 1.71 2.27 2.27 0 0 1-.18 1.31 1.68 1.68 0 0 1-.8.84 3.05 3.05 0 0 1-1.16-.13 9.11 9.11 0 0 1-.9-.46c-.33-.19-.35-1.15-.07-1.82Zm-2.37 1.24L238-39l-.3-.2ZM209-35c.13 0 .32-.14.37 0s0 .37 0 .57c-.13 0-.32.14-.37 0s0-.37 0-.57Zm-10.58 1.7.12.4-.35.09Zm-69.75 14.78-.71-.26a.44.44 0 0 1 .62.09.56.56 0 0 1 .09.17Zm-1.86 1.18a1.5 1.5 0 0 1 .27-.57c.23-.28.48-.51.72-.76a8.22 8.22 0 0 1-.4 1.08 4.41 4.41 0 0 1-.59.76 1.46 1.46 0 0 1 0-.51Zm-1.75-2.74c.14 0 .16.76.08 1.16-.18.69-.39 1.36-.63 2-.72-.49-1.38-.77-2.26 1-.63 1.23-.88 1.07-1-.35 0-.58-.08-1.17-.11-1.75 1.25-2.14 2.58-2.3 3.89-2Zm-9.65 4.69a4.28 4.28 0 0 0 3.09-2.17c1.25-1.89 1.34-1.83 2.62-.49-.52 1.68-1.16 3.05-2.48 3.52-.91.32-1.85 1-2.77 1.41a.77.77 0 0 1-.83-.16 1.45 1.45 0 0 1-.26-1.05c.06-.35.45-1 .63-1.06Zm-1.81-2.71v.23-.6a1.53 1.53 0 0 1 .08.37Zm-10.84 1.72a4.06 4.06 0 0 0 3.62-1.18 3.37 3.37 0 0 1 1.83-.77 24.7 24.7 0 0 1 2.73-.2 17.42 17.42 0 0 0 1 1.65c.48.62 1 .18 1.57-.6v1.3a3 3 0 0 1-1.51 2.74 3.89 3.89 0 0 1-1.39.51c-2.39.13-4.79.29-7.13.23a20.85 20.85 0 0 1-3.76-.74c-.14-1.1-.26-2.11-.38-3.11 1.16.05 2.33 0 3.47.17Zm-17.76.1a15.1 15.1 0 0 1 2.69-.06l11.55-.21c-.32.9-.62 1.8-1 2.68a2.57 2.57 0 0 1-.73 1.11 5.62 5.62 0 0 1-2.26.73c-.36 0-.56-.77-.85-1.23L90.77-11c-.16.09-.32.29-.47.32a12.16 12.16 0 0 1-2.31.56c-.61.05-1.1-.33-1.23-1.28-.08-.62-.19-1.59-.68-1.09-1.35 1.37-2.19-.9-3.51.74-.68 0-.79-.84-1-1.53A4.7 4.7 0 0 1 85-16.27ZM72.21-15c2.59-.43 5.18-.8 7.77-1.17.56-.08.76.7.68 2.47-1.19 1-2.39 1.87-3.57 1.77a14.33 14.33 0 0 0-5.45 1.05 2.18 2.18 0 0 1-2.7-.85c.84-1.93 2-3 3.27-3.27ZM55-11.36c.55-.62 1.25-1.53 1.74-1.53a33.6 33.6 0 0 0 9.18-1.41 1.77 1.77 0 0 1 1.94.89 15 15 0 0 1 1 1.7c-.64 1-1.34 1.81-2.14 1.84a7.67 7.67 0 0 1-3.1-.13 5.38 5.38 0 0 0-4.92.6c-1.49.84-2.65 0-3.76-.74a2 2 0 0 1 .07-1.2Zm-5.62.14a22.61 22.61 0 0 1 1.82-2.72c.21-.26.58-.17.87-.23a1.39 1.39 0 0 1 .66 1.84 3.64 3.64 0 0 1-1 1.6 5.74 5.74 0 0 1-2.2.5c-.12 0-.27-.82-.17-1ZM32.32-9.93c3.13-.93 6.25-1.67 9.36-2.42.29-.07.55.16.82.26.46.17.8 1.2.67 2.09a3 3 0 0 1-1.42 2.12 7.26 7.26 0 0 1-5 .26 15.62 15.62 0 0 0-6.08-.55c.54-.64 1.11-1.61 1.62-1.76Zm-7.1 2.72a.91.91 0 0 1-.17.57c-.61.68-1.15.62-1.61.25-.09-.07-.09-.35-.12-.53.35-.8 1.64-1 1.9-.29ZM-9.35 22c.08-.11.23-.09.35-.12a1.82 1.82 0 0 1-.08.52c-.09.1-.24.08-.36.12a1.82 1.82 0 0 1 .08-.52Z" data-name="Path 2520" style="fill:#f37e21" transform="translate(23.64 68.94)"/></g></g></svg>